<svg width="611" height="128" viewBox="0 0 611 128" fill="none" xmlns="http://www.w3.org/2000/svg">
<g clip-path="url(#clip0_3_18)">
<path d="M138.376 1.45923H125.858H116.821H108.988V77.935H125.858V14.9248H138.376V77.935H155.247V1.45923H146.645H138.376Z" fill="white"/>
<path d="M195.848 1.45923H174.404L164.386 77.935H181.256L182.895 61.6448H195.985L197.692 77.935H214.451L204.45 1.45923H195.848ZM191.539 13.8496L194.773 49.3568H184.098L187.324 13.8496H191.539Z" fill="white"/>
<path d="M263.014 7.11683C260.762 5.0347 257.988 3.5755 254.686 2.7307C251.383 1.8859 247.552 1.45923 243.2 1.45923H223.718V77.935H240.478V58.4278H242.108C247.697 58.4278 252.561 57.5318 256.691 55.7483C260.83 53.9563 264.038 50.9696 266.325 46.7712C268.612 42.5728 269.756 36.8384 269.756 29.551C269.756 23.9616 269.192 19.3451 268.066 15.7014C266.94 12.0576 265.25 9.19896 263.006 7.11683H263.014ZM252.237 39.7995C251.58 42.1376 250.462 43.7504 248.866 44.6294C247.27 45.5083 245.018 45.9435 242.116 45.9435H240.486V13.952H242.551C245.308 13.952 247.467 14.3275 249.028 15.0699C250.59 15.8208 251.674 17.3142 252.296 19.5584C252.911 21.8027 253.218 25.1392 253.218 29.5595C253.218 33.9798 252.894 37.4614 252.237 39.7995Z" fill="white"/>
<path d="M305.032 1.45923H283.588L273.57 77.935H290.44L292.079 61.6448H305.169L306.876 77.935H323.635L313.626 1.45923H305.024H305.032ZM300.715 13.8496L303.949 49.3568H293.274L296.499 13.8496H300.715Z" fill="white"/>
<path d="M368.768 40.4907C369.655 40.0043 370.492 39.4667 371.26 38.8694C375.791 35.3878 378.061 30.0118 378.061 22.7243C378.061 15.4368 376.03 9.6683 371.968 6.38296C367.906 3.09763 361.301 1.45923 352.154 1.45923H332.885V77.935H352.589C361.66 77.935 368.392 76.3392 372.779 73.1563C377.165 69.9734 379.366 64.6998 379.366 57.3526C379.366 52.4118 378.291 48.5376 376.158 45.7472C374.374 43.4176 371.908 41.6683 368.768 40.4907ZM351.505 13.4571C354.048 13.4571 356.019 13.7387 357.436 14.2848C358.852 14.8395 359.834 15.8806 360.371 17.408C360.917 18.9355 361.19 21.103 361.19 23.8934C361.19 28.1856 360.627 31.2918 359.501 33.2118C358.374 35.1318 355.712 36.0875 351.496 36.0875H349.099V13.4571H351.496H351.505ZM360.38 64.0342C358.818 65.3056 355.968 65.9371 351.838 65.9371H349.116V46.8224H351.838C355.976 46.8224 358.818 47.4539 360.38 48.7254C361.941 49.9968 362.718 52.5483 362.718 56.3798C362.718 60.2112 361.941 62.7712 360.38 64.0342Z" fill="white"/>
<path d="M426.615 2.92693C423.134 0.9728 418.415 0 412.467 0C406.519 0 401.911 0.9728 398.421 2.92693C394.94 4.88107 392.448 7.7056 390.963 11.4091C389.478 15.1125 388.736 19.5072 388.736 24.576V54.7157C388.736 59.8528 389.478 64.256 390.963 67.9339C392.448 71.6117 394.94 74.4363 398.421 76.4245C401.903 78.4043 406.588 79.4027 412.467 79.4027C418.347 79.4027 423.134 78.4128 426.615 76.4245C430.097 74.4448 432.58 71.6117 434.074 67.9339C435.558 64.2645 436.301 59.8528 436.301 54.7157V24.5845C436.301 19.5157 435.558 15.1211 434.074 11.4176C432.589 7.71413 430.097 4.88107 426.615 2.93547V2.92693ZM419.217 54.7243C419.217 59.2128 418.799 62.3531 417.963 64.1365C417.126 65.9285 415.292 66.816 412.467 66.816C409.643 66.816 407.808 65.92 406.972 64.1365C406.135 62.3445 405.717 59.2128 405.717 54.7243V24.5845C405.717 20.1643 406.135 17.0411 406.972 15.2235C407.808 13.4059 409.643 12.4928 412.467 12.4928C415.292 12.4928 417.126 13.4059 417.963 15.2235C418.799 17.0411 419.217 20.1643 419.217 24.5845V54.7243Z" fill="white"/>
<path d="M478.643 1.45923H453.282V8.23469C453.282 10.9995 453.265 14.0374 453.231 17.3568C453.197 20.6763 453.154 24.0555 453.12 27.503C453.086 30.9504 453.043 34.2955 453.009 37.5467C452.975 40.7979 452.915 43.7419 452.847 46.3702C452.77 49.007 452.702 51.1318 452.625 52.7616C452.48 56.5334 452.156 59.3664 451.644 61.2523C451.132 63.1382 450.159 64.4267 448.708 65.1094C447.257 65.792 445.039 66.1334 442.069 66.1334V78.3275L449.143 78.72C453.572 78.72 457.071 78.0886 459.648 76.8171C462.225 75.5456 464.094 73.3696 465.254 70.2806C466.415 67.1915 467.174 62.9504 467.541 57.5488C467.686 55.0144 467.797 52.0875 467.865 48.768C467.934 45.4486 467.993 41.8731 468.028 38.0416C468.062 34.2016 468.121 30.208 468.19 26.0438C468.249 22.3403 468.318 18.6283 468.386 14.9248H478.643V77.935H495.3V1.45923H478.643Z" fill="white"/>
<path d="M536.013 1.45923H514.568L504.55 77.935H521.421L523.059 61.6448H536.149L537.856 77.935H554.615L544.597 1.45923H535.996H536.013ZM531.695 13.8496L534.929 49.3568H524.254L527.479 13.8496H531.695Z" fill="white"/>
<path d="M593.596 1.45923V37.1627H580.744V1.45923H563.874V77.935H580.744V50.432H593.596V77.935H610.466V1.45923H593.596Z" fill="white"/>
<path d="M108.988 120.994V98.5002H112.008L116.889 107.759C116.975 107.913 117.086 107.981 117.231 107.981C117.376 107.981 117.47 107.904 117.538 107.759L122.453 98.5002H125.44V120.994H122.001V108.425L122.351 106.078C122.393 105.924 122.351 105.822 122.24 105.771C122.12 105.719 122.009 105.771 121.899 105.95L117.982 112.922H116.343L112.52 105.95C112.435 105.779 112.333 105.719 112.213 105.771C112.094 105.822 112.051 105.924 112.068 106.078L112.452 108.425V120.994H108.979H108.988Z" fill="white"/>
<path d="M139.008 121.378L137.95 119.868C137.779 119.629 137.6 119.612 137.404 119.799C136.892 120.226 136.337 120.584 135.748 120.875C135.159 121.165 134.4 121.31 133.478 121.31C131.934 121.31 130.713 120.875 129.817 120.004C128.921 119.134 128.469 118.016 128.469 116.642C128.469 115.661 128.691 114.824 129.143 114.15C129.596 113.476 130.219 112.964 131.021 112.606C131.823 112.247 132.753 112.077 133.803 112.077H137.173V110.054C137.173 109.218 136.917 108.57 136.405 108.092C135.893 107.622 135.1 107.383 134.024 107.383C133.231 107.383 132.505 107.503 131.84 107.75C131.174 107.998 130.5 108.356 129.817 108.826L128.819 106.027C129.63 105.472 130.483 105.054 131.371 104.789C132.258 104.525 133.222 104.388 134.246 104.388C136.328 104.388 137.864 104.9 138.854 105.933C139.844 106.965 140.348 108.271 140.348 109.858V117.35L141.858 119.569L138.999 121.37L139.008 121.378ZM133.965 118.647C134.946 118.647 135.731 118.383 136.311 117.862C136.892 117.342 137.182 116.659 137.182 115.823V114.765C137.182 114.423 136.985 114.304 136.601 114.415L135.057 114.765H133.931C133.222 114.765 132.668 114.927 132.275 115.251C131.883 115.575 131.678 116.019 131.678 116.599C131.678 117.18 131.883 117.666 132.301 118.059C132.719 118.451 133.273 118.656 133.956 118.656L133.965 118.647Z" fill="white"/>
<path d="M150.468 121.412C148.471 121.412 146.918 120.875 145.792 119.808C144.665 118.741 144.008 117.402 143.812 115.789C143.684 114.722 143.616 113.758 143.616 112.896C143.616 112.444 143.633 111.991 143.667 111.531C143.701 111.07 143.744 110.575 143.812 110.037C144.025 108.407 144.691 107.068 145.809 106.001C146.927 104.943 148.463 104.414 150.434 104.414C151.398 104.414 152.252 104.533 153.003 104.781C153.753 105.028 154.462 105.395 155.127 105.89L154.163 108.527C153.608 108.16 153.045 107.878 152.491 107.674C151.936 107.469 151.287 107.366 150.562 107.366C149.512 107.366 148.685 107.656 148.07 108.254C147.456 108.843 147.132 109.559 147.089 110.387C147.021 111.326 146.987 112.179 146.978 112.93C146.969 113.681 147.004 114.517 147.089 115.439C147.157 116.25 147.481 116.958 148.087 117.564C148.685 118.161 149.529 118.46 150.63 118.46C151.27 118.46 151.902 118.366 152.508 118.187C153.122 118.007 153.719 117.717 154.325 117.333L155.221 119.876C154.453 120.414 153.685 120.806 152.926 121.045C152.166 121.293 151.347 121.412 150.468 121.412Z" fill="white"/>
<path d="M163.848 121.344C161.894 121.344 160.358 120.815 159.24 119.757C158.114 118.699 157.457 117.359 157.261 115.755C157.133 114.722 157.064 113.783 157.064 112.93C157.064 112.478 157.081 112.017 157.116 111.548C157.15 111.078 157.192 110.575 157.261 110.037C157.474 108.433 158.14 107.093 159.257 106.035C160.375 104.977 161.903 104.448 163.857 104.448C165.811 104.448 167.373 104.977 168.499 106.027C169.625 107.076 170.283 108.416 170.479 110.046C170.607 111.095 170.675 112.06 170.675 112.939C170.675 113.818 170.607 114.739 170.479 115.763C170.265 117.367 169.6 118.707 168.482 119.765C167.364 120.823 165.828 121.353 163.857 121.353L163.848 121.344ZM163.848 118.451C164.898 118.451 165.7 118.144 166.246 117.538C166.792 116.924 167.108 116.215 167.193 115.405C167.279 114.5 167.321 113.681 167.321 112.93C167.321 112.179 167.279 111.343 167.193 110.421C167.108 109.585 166.792 108.868 166.246 108.271C165.7 107.674 164.898 107.375 163.848 107.375C162.799 107.375 162.056 107.674 161.485 108.271C160.913 108.868 160.597 109.585 160.537 110.421C160.452 111.343 160.418 112.179 160.427 112.93C160.435 113.681 160.486 114.509 160.572 115.405C160.657 116.215 160.973 116.932 161.519 117.538C162.065 118.144 162.841 118.451 163.848 118.451Z" fill="white"/>
<path d="M173.926 120.994V104.798H180.352C182.152 104.798 183.552 105.182 184.559 105.941C185.566 106.701 186.069 107.802 186.069 109.235C186.069 110.003 185.856 110.694 185.429 111.292C185.003 111.889 184.414 112.341 183.663 112.64C184.559 112.879 185.267 113.323 185.771 113.988C186.274 114.654 186.53 115.465 186.53 116.429C186.53 117.888 186.018 119.014 185.003 119.799C183.987 120.593 182.545 120.986 180.676 120.986H173.926V120.994ZM177.331 111.607H180.258C181.009 111.607 181.589 111.428 182.007 111.078C182.426 110.729 182.63 110.225 182.63 109.585C182.63 108.945 182.426 108.484 182.007 108.134C181.589 107.793 181.009 107.622 180.258 107.622H177.331V111.607ZM177.331 118.17H180.574C181.384 118.17 182.007 117.999 182.425 117.658C182.844 117.316 183.048 116.83 183.048 116.215C183.048 115.601 182.844 115.098 182.425 114.739C182.007 114.381 181.393 114.193 180.574 114.193H177.331V118.178V118.17Z" fill="white"/>
<path d="M191.07 120.994V107.725H188.561V104.798H194.543V120.994H191.07ZM191.07 101.999V98.4917H194.543V101.999H191.07Z" fill="white"/>
<path d="M208.52 120.994V98.5002H221.824V101.777H211.857V108.169H221.269V111.317H211.857V117.717H221.824V120.994H208.52Z" fill="white"/>
<path d="M224.964 120.994V104.798H231.39C233.19 104.798 234.59 105.182 235.597 105.941C236.604 106.701 237.107 107.802 237.107 109.235C237.107 110.003 236.894 110.694 236.467 111.292C236.04 111.889 235.452 112.341 234.701 112.64C235.597 112.879 236.305 113.323 236.808 113.988C237.312 114.654 237.568 115.465 237.568 116.429C237.568 117.888 237.056 119.014 236.04 119.799C235.025 120.593 233.583 120.986 231.714 120.986H224.964V120.994ZM228.378 111.607H231.304C232.055 111.607 232.636 111.428 233.054 111.078C233.472 110.729 233.677 110.225 233.677 109.585C233.677 108.945 233.472 108.484 233.054 108.134C232.636 107.793 232.055 107.622 231.304 107.622H228.378V111.607ZM228.378 118.17H231.62C232.431 118.17 233.054 117.999 233.472 117.658C233.89 117.316 234.095 116.83 234.095 116.215C234.095 115.601 233.89 115.098 233.472 114.739C233.054 114.381 232.439 114.193 231.62 114.193H228.378V118.178V118.17Z" fill="white"/>
<path d="M250.667 121.378L249.608 119.868C249.438 119.629 249.259 119.612 249.062 119.799C248.55 120.226 247.996 120.584 247.407 120.875C246.818 121.165 246.059 121.31 245.137 121.31C243.592 121.31 242.372 120.875 241.476 120.004C240.58 119.134 240.128 118.016 240.128 116.642C240.128 115.661 240.35 114.824 240.802 114.15C241.254 113.476 241.877 112.964 242.679 112.606C243.481 112.247 244.412 112.077 245.461 112.077H248.832V110.054C248.832 109.218 248.576 108.57 248.064 108.092C247.552 107.622 246.758 107.383 245.683 107.383C244.889 107.383 244.164 107.503 243.499 107.75C242.833 107.998 242.159 108.356 241.476 108.826L240.478 106.027C241.288 105.472 242.142 105.054 243.029 104.789C243.917 104.525 244.881 104.388 245.905 104.388C247.987 104.388 249.523 104.9 250.513 105.933C251.503 106.965 252.006 108.271 252.006 109.858V117.35L253.517 119.569L250.658 121.37L250.667 121.378ZM245.623 118.647C246.605 118.647 247.39 118.383 247.97 117.862C248.55 117.342 248.84 116.659 248.84 115.823V114.765C248.84 114.423 248.644 114.304 248.26 114.415L246.716 114.765H245.589C244.881 114.765 244.326 114.927 243.934 115.251C243.541 115.575 243.336 116.019 243.336 116.599C243.336 117.18 243.541 117.666 243.959 118.059C244.377 118.451 244.932 118.656 245.615 118.656L245.623 118.647Z" fill="white"/>
<path d="M256.281 120.994V104.798H259.72V111.351H261.555L265.216 104.798H268.851L264.158 113.314L263.902 111.642L269.073 120.994H265.284L261.521 114.244H259.72V120.994H256.281Z" fill="white"/>
<path d="M273.109 128L272.077 124.979C273.212 124.74 274.073 124.305 274.662 123.665C275.251 123.025 275.686 122.231 275.968 121.284L276.42 119.774L270.797 104.798H274.364L277.478 113.698L277.803 115.917C277.82 116.087 277.905 116.173 278.042 116.173C278.178 116.173 278.263 116.087 278.28 115.917L278.664 113.698L281.173 104.798H284.68L279.151 122.47C278.724 123.904 277.99 125.107 276.949 126.071C275.908 127.036 274.628 127.676 273.109 128Z" fill="white"/>
<path d="M297.131 121.378L296.072 119.868C295.902 119.629 295.723 119.612 295.526 119.799C295.014 120.226 294.46 120.584 293.871 120.875C293.282 121.165 292.523 121.31 291.601 121.31C290.056 121.31 288.836 120.875 287.94 120.004C287.044 119.134 286.592 118.016 286.592 116.642C286.592 115.661 286.814 114.824 287.266 114.15C287.718 113.476 288.341 112.964 289.143 112.606C289.945 112.247 290.876 112.077 291.925 112.077H295.296V110.054C295.296 109.218 295.04 108.57 294.528 108.092C294.016 107.622 293.222 107.383 292.147 107.383C291.353 107.383 290.628 107.503 289.963 107.75C289.297 107.998 288.623 108.356 287.94 108.826L286.942 106.027C287.752 105.472 288.606 105.054 289.493 104.789C290.381 104.525 291.345 104.388 292.369 104.388C294.451 104.388 295.987 104.9 296.977 105.933C297.967 106.965 298.47 108.271 298.47 109.858V117.35L299.981 119.569L297.122 121.37L297.131 121.378ZM292.079 118.647C293.06 118.647 293.845 118.383 294.425 117.862C295.006 117.342 295.296 116.659 295.296 115.823V114.765C295.296 114.423 295.1 114.304 294.716 114.415L293.171 114.765H292.045C291.336 114.765 290.782 114.927 290.389 115.251C289.997 115.575 289.792 116.019 289.792 116.599C289.792 117.18 289.997 117.666 290.415 118.059C290.833 118.451 291.388 118.656 292.07 118.656L292.079 118.647Z" fill="white"/>
<path d="M302.737 120.994V104.798H306.21V118.101H311.927V104.798H315.4V120.994H302.737ZM314.274 125.175V118.101H317.457V125.175H314.274Z" fill="white"/>
<path d="M321.041 120.994V107.725H318.532V104.798H324.514V120.994H321.041ZM321.041 101.999V98.4917H324.514V101.999H321.041Z" fill="white"/>
<path d="M326.886 101.999V98.4917H330.163V101.999H326.886ZM330.291 120.994V107.725H327.782V104.798H333.764V120.994H330.291ZM332.8 101.999V98.4917H336.077V101.999H332.8Z" fill="white"/>
<path d="M347.742 120.994V98.5002H362.59V120.994H358.929V101.743H351.377V120.994H347.742Z" fill="white"/>
<path d="M372.727 121.344C370.773 121.344 369.237 120.815 368.119 119.757C366.993 118.699 366.336 117.359 366.14 115.755C366.012 114.722 365.943 113.783 365.943 112.93C365.943 112.478 365.96 112.017 365.995 111.548C366.029 111.078 366.071 110.575 366.14 110.037C366.353 108.433 367.019 107.093 368.136 106.035C369.254 104.977 370.782 104.448 372.736 104.448C374.69 104.448 376.252 104.977 377.378 106.027C378.504 107.076 379.161 108.416 379.358 110.046C379.486 111.095 379.554 112.06 379.554 112.939C379.554 113.818 379.486 114.739 379.358 115.763C379.144 117.367 378.479 118.707 377.361 119.765C376.243 120.823 374.707 121.353 372.736 121.353L372.727 121.344ZM372.727 118.451C373.777 118.451 374.579 118.144 375.125 117.538C375.671 116.924 375.987 116.215 376.072 115.405C376.158 114.5 376.2 113.681 376.2 112.93C376.2 112.179 376.158 111.343 376.072 110.421C375.987 109.585 375.671 108.868 375.125 108.271C374.579 107.674 373.777 107.375 372.727 107.375C371.678 107.375 370.935 107.674 370.364 108.271C369.792 108.868 369.476 109.585 369.416 110.421C369.331 111.343 369.297 112.179 369.305 112.93C369.314 113.681 369.365 114.509 369.451 115.405C369.536 116.215 369.852 116.932 370.398 117.538C370.944 118.144 371.72 118.451 372.727 118.451Z" fill="white"/>
<path d="M382.754 127.42V104.798H386.227V105.702C386.637 105.335 387.166 105.037 387.831 104.798C388.497 104.559 389.188 104.448 389.922 104.448C391.825 104.448 393.267 104.934 394.248 105.907C395.221 106.88 395.793 108.203 395.972 109.875C396.015 110.43 396.049 110.95 396.066 111.42C396.083 111.889 396.1 112.375 396.1 112.87C396.1 113.323 396.092 113.783 396.066 114.27C396.04 114.756 396.015 115.294 395.972 115.891C395.819 117.538 395.264 118.861 394.3 119.842C393.335 120.832 391.919 121.318 390.059 121.318C389.76 121.318 389.512 121.301 389.316 121.267C389.12 121.233 388.907 121.199 388.676 121.156L386.91 120.064C386.713 119.953 386.56 119.945 386.423 120.013C386.295 120.09 386.227 120.209 386.227 120.38V127.42H382.754ZM389.342 118.426C390.434 118.426 391.219 118.144 391.705 117.589C392.183 117.035 392.465 116.369 392.525 115.593C392.61 114.697 392.653 113.792 392.653 112.879C392.653 111.966 392.61 111.078 392.525 110.199C392.456 109.431 392.183 108.766 391.688 108.22C391.193 107.674 390.417 107.401 389.342 107.401C388.267 107.401 387.533 107.631 387.012 108.092C386.483 108.553 386.227 109.175 386.227 109.969V115.789C386.227 116.557 386.5 117.188 387.046 117.683C387.592 118.178 388.36 118.426 389.342 118.426Z" fill="white"/>
<path d="M409.173 121.378L408.115 119.868C407.944 119.629 407.765 119.612 407.569 119.799C407.057 120.226 406.502 120.584 405.913 120.875C405.325 121.165 404.565 121.31 403.644 121.31C402.099 121.31 400.879 120.875 399.983 120.004C399.087 119.134 398.635 118.016 398.635 116.642C398.635 115.661 398.856 114.824 399.309 114.15C399.761 113.476 400.384 112.964 401.186 112.606C401.988 112.247 402.918 112.077 403.968 112.077H407.339V110.054C407.339 109.218 407.083 108.57 406.571 108.092C406.059 107.622 405.265 107.383 404.19 107.383C403.396 107.383 402.671 107.503 402.005 107.75C401.34 107.998 400.665 108.356 399.983 108.826L398.984 106.027C399.795 105.472 400.648 105.054 401.536 104.789C402.423 104.525 403.388 104.388 404.412 104.388C406.494 104.388 408.03 104.9 409.02 105.933C410.009 106.965 410.513 108.271 410.513 109.858V117.35L412.023 119.569L409.165 121.37L409.173 121.378ZM404.13 118.647C405.111 118.647 405.896 118.383 406.477 117.862C407.057 117.342 407.347 116.659 407.347 115.823V114.765C407.347 114.423 407.151 114.304 406.767 114.415L405.222 114.765H404.096C403.388 114.765 402.833 114.927 402.44 115.251C402.048 115.575 401.843 116.019 401.843 116.599C401.843 117.18 402.048 117.666 402.466 118.059C402.884 118.451 403.439 118.656 404.121 118.656L404.13 118.647Z" fill="white"/>
<path d="M414.78 120.994V104.798H418.253V111.351H424.004V104.798H427.443V120.994H424.004V114.244H418.253V120.994H414.78Z" fill="white"/>
<path d="M437.896 121.318C436.523 121.318 435.345 121.08 434.364 120.593C433.374 120.107 432.597 119.45 432.017 118.613C431.437 117.777 431.07 116.838 430.925 115.789C430.856 115.277 430.814 114.79 430.78 114.338C430.745 113.886 430.728 113.442 430.728 112.99C430.728 112.137 430.797 111.181 430.925 110.131C431.121 108.501 431.761 107.153 432.853 106.078C433.945 105.003 435.422 104.474 437.291 104.474C438.553 104.474 439.603 104.687 440.422 105.114C441.25 105.54 441.899 106.112 442.368 106.829C442.837 107.546 443.17 108.356 443.366 109.252C443.562 110.148 443.656 111.07 443.656 112.017L443.016 113.69H432.281L432.247 111.053H440.439C440.439 110.43 440.354 109.833 440.183 109.269C440.013 108.698 439.697 108.237 439.253 107.87C438.809 107.503 438.161 107.324 437.325 107.324C436.292 107.324 435.516 107.639 434.978 108.271C434.44 108.902 434.142 109.687 434.082 110.635C434.039 111.172 434.005 111.829 433.988 112.614C433.963 113.4 433.997 114.27 434.082 115.234C434.193 116.224 434.568 117.001 435.208 117.581C435.848 118.161 436.753 118.451 437.905 118.451C438.63 118.451 439.339 118.34 440.03 118.11C440.712 117.888 441.369 117.572 441.992 117.163L442.923 119.731C442.112 120.286 441.318 120.687 440.542 120.934C439.765 121.182 438.895 121.301 437.905 121.301L437.896 121.318Z" fill="white"/>
<path d="M446.575 120.994V104.798H450.048V111.351H455.799V104.798H459.238V120.994H455.799V114.244H450.048V120.994H446.575Z" fill="white"/>
<path d="M463.13 120.994V104.798H466.534V113.186L466.116 115.601C466.091 115.755 466.142 115.857 466.261 115.925C466.381 115.985 466.483 115.951 466.568 115.797L473.062 104.806H476.117V121.003H472.712V112.777L473.096 110.396C473.139 110.225 473.096 110.114 472.986 110.054C472.866 110.003 472.747 110.071 472.619 110.259L466.193 120.994H463.138H463.13Z" fill="white"/>
<path d="M478.839 120.994L483.464 112.896L478.839 104.798H482.628L485.103 109.525L485.589 111.002C485.632 111.13 485.709 111.198 485.828 111.198C485.948 111.198 486.024 111.13 486.067 111.002L486.579 109.525L488.986 104.798H492.774L488.175 112.896L492.774 120.994H488.986L486.579 116.267L486.067 114.79C486.024 114.662 485.948 114.594 485.828 114.594C485.709 114.594 485.632 114.654 485.589 114.79L485.103 116.267L482.628 120.994H478.839Z" fill="white"/>
<path d="M47.8463 32.4009H32.0682V48.179H47.8463V32.4009Z" fill="white"/>
<path d="M16.29 0.844727H0.511902V16.6229V48.1877H16.29V16.6229H64.034V48.1877H79.8122V16.6229V0.844727H64.034H16.29Z" fill="white"/>
<path d="M47.8463 63.9658H32.0682V79.744H47.8463V63.9658Z" fill="white"/>
<path d="M63.6244 48.1877H47.8463V63.9659H63.6244V48.1877Z" fill="white"/>
<path d="M32.0682 48.1877H16.29V63.9659H32.0682V48.1877Z" fill="white"/>
<path d="M0.511902 86.0842L9.94977 95.5221L27.8954 113.476L35.4474 121.02H44.8767L52.4287 113.476L70.3743 95.5221L79.8122 86.0842V63.9658H64.034V79.5477L41.2671 102.315H39.057L16.29 79.5477V63.9658H0.511902V86.0842Z" fill="white"/>
</g>
<defs>
<clipPath id="clip0_3_18">
<rect width="609.954" height="128" fill="white" transform="translate(0.511902)"/>
</clipPath>
</defs>
</svg>
