<svg width="955" height="203" viewBox="0 0 955 203" fill="none" xmlns="http://www.w3.org/2000/svg">
<mask id="mask0_48_137" style="mask-type:luminance" maskUnits="userSpaceOnUse" x="0" y="0" width="955" height="203">
<path d="M954.718 0H0V202.042H954.718V0Z" fill="white"/>
</mask>
<g mask="url(#mask0_48_137)">
<path d="M74.0895 51.144H49.3925V76.049H74.0895V51.144Z" fill="#0004E6"/>
<path d="M24.6964 1.33301H0V26.239V76.062H24.6964V26.239H99.4264V76.062H124.123V26.239V1.33301H99.4264H24.6964Z" fill="#0004E6"/>
<path d="M74.0895 100.967H49.3925V125.872H74.0895V100.967Z" fill="#0004E6"/>
<path d="M98.7854 76.062H74.0884V100.967H98.7854V76.062Z" fill="#0004E6"/>
<path d="M49.3924 76.062H24.6963V100.967H49.3924V76.062Z" fill="#0004E6"/>
<path d="M0 135.88L14.7725 150.777L42.8614 179.117L54.6824 191.024H69.4414L81.2614 179.117L109.35 150.777L124.123 135.88V100.967H99.4264V125.562L63.7914 161.499H60.3324L24.6964 125.562V100.967H0V135.88Z" fill="#0004E6"/>
</g>
<path d="M655.849 4.61301C650.195 1.53601 642.534 0 632.868 0C623.202 0 615.726 1.53601 610.064 4.61301C604.41 7.69101 600.371 12.152 597.954 17.995C595.538 23.839 594.333 30.759 594.333 38.763V86.293C594.333 94.397 595.538 101.344 597.954 107.134C600.371 112.931 604.403 117.391 610.064 120.516C615.719 123.64 623.325 125.209 632.868 125.209C642.411 125.209 650.188 123.647 655.849 120.516C661.504 117.391 665.543 112.931 667.96 107.134C670.376 101.344 671.581 94.397 671.581 86.293V38.763C671.581 30.765 670.369 23.845 667.96 17.995C665.543 12.152 661.511 7.69101 655.849 4.61301ZM643.828 86.287C643.828 93.36 643.15 98.312 641.795 101.131C640.439 103.95 637.461 105.359 632.868 105.359C628.274 105.359 625.296 103.95 623.941 101.131C622.585 98.312 621.908 93.367 621.908 86.287V38.756C621.908 31.783 622.585 26.863 623.941 23.991C625.296 21.12 628.274 19.684 632.868 19.684C637.461 19.684 640.439 21.12 641.795 23.991C643.15 26.863 643.828 31.783 643.828 38.756V86.287Z" fill="#0A0F0D"/>
<path d="M233.126 11.1549C229.47 7.87088 224.966 5.56386 219.606 4.23486C214.245 2.90486 208.029 2.23389 200.957 2.23389H169.316V122.822H196.535V92.0569H199.184C208.255 92.0569 216.155 90.6479 222.871 87.8289C229.587 85.0099 234.803 80.2909 238.514 73.6759C242.224 67.0619 244.079 58.0139 244.079 46.5269C244.079 37.7119 243.162 30.4259 241.341 24.6829C239.513 18.9389 236.775 14.4319 233.119 11.1479L233.126 11.1549ZM215.628 62.6809C214.567 66.3699 212.739 68.9099 210.151 70.2929C207.557 71.6749 203.901 72.3669 199.191 72.3669H196.542V21.9169H199.903C204.38 21.9169 207.885 22.5089 210.418 23.6859C212.951 24.8619 214.718 27.2219 215.724 30.7589C216.723 34.2949 217.223 39.5539 217.223 46.5269C217.223 53.4999 216.696 58.9849 215.635 62.6739L215.628 62.6809Z" fill="#0A0F0D"/>
<path d="M711.971 101.596V2.22705H684.568V122.822H742.134L745.003 101.596H711.971Z" fill="#0A0F0D"/>
<path d="M405.579 73.7561C409.29 67.1421 411.145 58.0941 411.145 46.6071C411.145 37.7921 410.228 30.5061 408.407 24.7631C406.579 19.0191 403.841 14.5121 400.185 11.2281C396.529 7.94412 392.025 5.63714 386.664 4.30814C381.304 2.97814 375.088 2.30713 368.016 2.30713H336.375V122.896H363.594V92.1301H366.243C368.256 92.1301 370.193 92.0501 372.09 91.9111L383.7 122.896H411.686L397.029 83.7871C400.438 81.1551 403.286 77.8111 405.566 73.7561H405.579ZM363.601 72.4461V21.9971H366.962C371.439 21.9971 374.944 22.5891 377.477 23.7651C380.01 24.9421 381.776 27.3021 382.783 30.8391C383.782 34.3751 384.282 39.6331 384.282 46.6071C384.282 53.5801 383.755 59.0651 382.694 62.7541C381.633 66.4441 379.805 68.9831 377.217 70.3661C374.623 71.7481 370.967 72.4401 366.257 72.4401H363.608L363.601 72.4461Z" fill="#0A0F0D"/>
<path d="M548.247 103.285H541.401L531.563 2.22705H504.166L520.432 122.822H569.215L585.474 2.22705H558.255L548.247 103.285Z" fill="#0A0F0D"/>
<path d="M891.75 78.2561L877.956 2.30713H843.494V122.896H870.891V46.9461L884.685 122.896H919.147V2.30713H891.75V78.2561Z" fill="#0A0F0D"/>
<path d="M436.119 2.22705L419.86 122.816H447.257L449.92 97.1291H471.176L473.949 122.816H501.168L484.909 2.22705H436.119ZM451.85 77.751L457.094 21.7641H463.94L469.191 77.751H451.85Z" fill="#0A0F0D"/>
<path d="M765.855 2.22705L749.596 122.816H776.993L779.656 97.1291H800.912L803.685 122.816H830.904L814.645 2.22705H765.855ZM781.594 77.751L786.837 21.7641H793.683L798.934 77.751H781.594Z" fill="#0A0F0D"/>
<path d="M261.03 2.22705L244.771 122.816H272.168L274.831 97.1291H296.087L298.86 122.816H326.079L309.82 2.22705H261.03ZM276.761 77.751L282.005 21.7641H288.851L294.102 77.751H276.761Z" fill="#0A0F0D"/>
<path d="M169.316 190.007V154.901H174.043L181.686 169.344C181.82 169.579 181.987 169.696 182.188 169.696C182.423 169.696 182.591 169.579 182.691 169.344L190.384 154.901H195.061V190.007H189.68V170.398L190.234 166.737C190.301 166.503 190.234 166.352 190.032 166.285C189.865 166.185 189.697 166.269 189.53 166.536L183.395 177.419H180.831L174.847 166.536C174.713 166.269 174.545 166.185 174.344 166.285C174.177 166.352 174.11 166.503 174.143 166.737L174.747 170.398V190.007H169.316Z" fill="#0A0F0D"/>
<path d="M217.375 190.609L215.716 188.252C215.448 187.884 215.163 187.851 214.861 188.151C214.057 188.82 213.185 189.389 212.246 189.857C211.341 190.291 210.168 190.509 208.727 190.509C206.313 190.509 204.402 189.84 202.994 188.503C201.586 187.132 200.882 185.376 200.882 183.237C200.882 181.699 201.234 180.411 201.938 179.375C202.642 178.305 203.615 177.503 204.855 176.968C206.129 176.399 207.587 176.115 209.229 176.115H214.509V172.955C214.509 171.651 214.107 170.632 213.302 169.896C212.498 169.161 211.257 168.793 209.581 168.793C208.341 168.793 207.201 168.993 206.162 169.395C205.123 169.762 204.067 170.314 202.994 171.05L201.436 166.686C202.709 165.817 204.034 165.182 205.408 164.781C206.816 164.346 208.324 164.129 209.933 164.129C213.185 164.129 215.582 164.931 217.124 166.536C218.699 168.141 219.487 170.18 219.487 172.655V184.34L221.85 187.8L217.375 190.609ZM209.481 186.346C211.023 186.346 212.246 185.945 213.151 185.142C214.057 184.306 214.509 183.237 214.509 181.933V180.278C214.509 179.743 214.207 179.559 213.604 179.726L211.19 180.278H209.431C208.324 180.278 207.453 180.528 206.816 181.03C206.212 181.531 205.911 182.234 205.911 183.136C205.911 184.039 206.229 184.808 206.866 185.443C207.537 186.045 208.408 186.346 209.481 186.346Z" fill="#0A0F0D"/>
<path d="M234.776 190.609C233.033 190.609 231.424 190.375 229.949 189.907C228.474 189.405 227.033 188.686 225.625 187.75L227.284 183.537C228.223 184.173 229.095 184.674 229.899 185.042C230.704 185.376 231.491 185.627 232.262 185.794C233.067 185.961 233.905 186.045 234.776 186.045C236.352 186.045 237.525 185.727 238.296 185.092C239.067 184.424 239.453 183.554 239.453 182.484C239.453 181.682 239.151 180.996 238.548 180.428C237.978 179.86 237.106 179.542 235.933 179.475L233.067 179.275C230.955 179.141 229.178 178.522 227.737 177.419C226.329 176.282 225.625 174.56 225.625 172.253C225.625 169.746 226.48 167.773 228.189 166.335C229.933 164.864 232.246 164.129 235.128 164.129C236.737 164.129 238.212 164.313 239.553 164.68C240.928 165.015 242.235 165.583 243.475 166.386L241.866 170.498C240.961 169.896 239.956 169.445 238.849 169.144C237.777 168.843 236.553 168.693 235.179 168.693C233.637 168.693 232.463 168.977 231.659 169.545C230.888 170.113 230.502 170.916 230.502 171.952C230.502 172.755 230.787 173.39 231.357 173.858C231.927 174.293 232.665 174.544 233.57 174.61L236.436 174.811C238.916 174.945 240.844 175.664 242.218 176.968C243.626 178.238 244.33 180.01 244.33 182.284C244.33 184.791 243.475 186.814 241.766 188.352C240.09 189.857 237.76 190.609 234.776 190.609Z" fill="#0A0F0D"/>
<path d="M257.451 190.609C255.708 190.609 254.099 190.375 252.624 189.907C251.149 189.405 249.707 188.686 248.299 187.75L249.959 183.537C250.897 184.173 251.769 184.674 252.573 185.042C253.378 185.376 254.166 185.627 254.937 185.794C255.741 185.961 256.579 186.045 257.451 186.045C259.026 186.045 260.2 185.727 260.971 185.092C261.742 184.424 262.127 183.554 262.127 182.484C262.127 181.682 261.825 180.996 261.222 180.428C260.652 179.86 259.781 179.542 258.607 179.475L255.741 179.275C253.629 179.141 251.853 178.522 250.411 177.419C249.003 176.282 248.299 174.56 248.299 172.253C248.299 169.746 249.154 167.773 250.864 166.335C252.607 164.864 254.92 164.129 257.803 164.129C259.412 164.129 260.887 164.313 262.228 164.68C263.602 165.015 264.909 165.583 266.15 166.386L264.541 170.498C263.636 169.896 262.63 169.445 261.524 169.144C260.451 168.843 259.227 168.693 257.853 168.693C256.311 168.693 255.138 168.977 254.333 169.545C253.562 170.113 253.177 170.916 253.177 171.952C253.177 172.755 253.462 173.39 254.032 173.858C254.601 174.293 255.339 174.544 256.244 174.61L259.11 174.811C261.591 174.945 263.518 175.664 264.893 176.968C266.3 178.238 267.004 180.01 267.004 182.284C267.004 184.791 266.15 186.814 264.44 188.352C262.764 189.857 260.434 190.609 257.451 190.609Z" fill="#0A0F0D"/>
<path d="M295.681 190.509C293.535 190.509 291.692 190.141 290.15 189.405C288.608 188.636 287.384 187.6 286.479 186.296C285.574 184.992 285.004 183.521 284.77 181.882C284.669 181.08 284.585 180.328 284.518 179.626C284.485 178.924 284.468 178.221 284.468 177.519C284.468 176.182 284.568 174.694 284.77 173.056C285.071 170.515 286.077 168.408 287.786 166.737C289.496 165.065 291.809 164.229 294.725 164.229C296.703 164.229 298.329 164.563 299.603 165.232C300.91 165.901 301.933 166.803 302.67 167.94C303.408 169.044 303.927 170.297 304.229 171.702C304.531 173.106 304.681 174.544 304.681 176.015L303.676 178.623H286.881L286.831 174.51H299.653C299.653 173.541 299.519 172.621 299.251 171.752C298.983 170.849 298.497 170.113 297.793 169.545C297.089 168.977 296.083 168.693 294.776 168.693C293.167 168.693 291.943 169.194 291.105 170.197C290.267 171.167 289.798 172.387 289.697 173.858C289.63 174.694 289.58 175.731 289.546 176.968C289.513 178.171 289.563 179.525 289.697 181.03C289.865 182.568 290.451 183.788 291.457 184.691C292.463 185.594 293.871 186.045 295.681 186.045C296.821 186.045 297.927 185.878 298.999 185.544C300.072 185.176 301.095 184.674 302.067 184.039L303.525 188.051C302.251 188.92 301.011 189.556 299.804 189.957C298.597 190.325 297.223 190.509 295.681 190.509Z" fill="#0A0F0D"/>
<path d="M313.902 190.007L307.064 164.731H312.544L317.07 182.585L317.422 185.594C317.489 185.861 317.606 185.995 317.774 185.995C317.975 185.995 318.092 185.861 318.126 185.594L318.528 182.585L323.104 164.731H328.534L321.595 190.007H313.902Z" fill="#0A0F0D"/>
<path d="M348.019 190.609L346.36 188.252C346.092 187.884 345.807 187.851 345.505 188.151C344.701 188.82 343.829 189.389 342.891 189.857C341.986 190.291 340.812 190.509 339.371 190.509C336.957 190.509 335.047 189.84 333.639 188.503C332.231 187.132 331.527 185.376 331.527 183.237C331.527 181.699 331.879 180.411 332.583 179.375C333.287 178.305 334.259 177.503 335.499 176.968C336.773 176.399 338.231 176.115 339.874 176.115H345.153V172.955C345.153 171.651 344.751 170.632 343.947 169.896C343.142 169.161 341.902 168.793 340.226 168.793C338.985 168.793 337.846 168.993 336.806 169.395C335.767 169.762 334.711 170.314 333.639 171.05L332.08 166.686C333.354 165.817 334.678 165.182 336.052 164.781C337.46 164.346 338.969 164.129 340.578 164.129C343.829 164.129 346.226 164.931 347.768 166.536C349.344 168.141 350.131 170.18 350.131 172.655V184.34L352.495 187.8L348.019 190.609ZM340.125 186.346C341.667 186.346 342.891 185.945 343.796 185.142C344.701 184.306 345.153 183.237 345.153 181.933V180.278C345.153 179.743 344.852 179.559 344.248 179.726L341.835 180.278H340.075C338.969 180.278 338.097 180.528 337.46 181.03C336.857 181.531 336.555 182.234 336.555 183.136C336.555 184.039 336.874 184.808 337.51 185.443C338.181 186.045 339.052 186.346 340.125 186.346Z" fill="#0A0F0D"/>
<path d="M366.589 190.659C363.472 190.659 361.024 189.823 359.248 188.151C357.505 186.48 356.482 184.39 356.181 181.882C355.979 180.211 355.879 178.706 355.879 177.369C355.879 176.667 355.896 175.965 355.929 175.262C355.996 174.527 356.08 173.741 356.181 172.905C356.516 170.364 357.555 168.275 359.298 166.636C361.041 164.965 363.455 164.129 366.539 164.129C368.047 164.129 369.388 164.329 370.561 164.731C371.735 165.098 372.841 165.667 373.88 166.436L372.372 170.548C371.5 169.98 370.628 169.545 369.757 169.244C368.885 168.91 367.88 168.743 366.74 168.743C365.097 168.743 363.79 169.211 362.818 170.147C361.879 171.05 361.376 172.153 361.309 173.457C361.209 174.928 361.142 176.249 361.108 177.419C361.108 178.589 361.175 179.893 361.309 181.331C361.41 182.601 361.93 183.705 362.868 184.641C363.807 185.577 365.131 186.045 366.84 186.045C367.846 186.045 368.818 185.911 369.757 185.644C370.729 185.343 371.684 184.892 372.623 184.29L374.031 188.252C372.824 189.088 371.617 189.689 370.411 190.057C369.237 190.458 367.963 190.659 366.589 190.659Z" fill="#0A0F0D"/>
<path d="M387.016 190.559C385.407 190.559 383.965 190.258 382.692 189.656C381.451 189.054 380.462 188.168 379.725 186.998C379.021 185.828 378.669 184.424 378.669 182.785V164.731H384.1V181.481C384.1 182.819 384.452 183.855 385.156 184.591C385.893 185.326 387.049 185.694 388.625 185.694C390.234 185.694 391.424 185.326 392.195 184.591C392.966 183.855 393.352 182.819 393.352 181.481V164.731H398.782V190.007H393.301V189.004C393.301 188.703 393.201 188.519 393 188.452C392.832 188.352 392.597 188.386 392.296 188.553L389.48 190.258C388.843 190.458 388.022 190.559 387.016 190.559Z" fill="#0A0F0D"/>
<path d="M420.855 190.609L419.195 188.252C418.927 187.884 418.642 187.851 418.34 188.151C417.536 188.82 416.664 189.389 415.726 189.857C414.821 190.291 413.647 190.509 412.206 190.509C409.792 190.509 407.882 189.84 406.474 188.503C405.066 187.132 404.362 185.376 404.362 183.237C404.362 181.699 404.714 180.411 405.418 179.375C406.122 178.305 407.094 177.503 408.334 176.968C409.608 176.399 411.066 176.115 412.709 176.115H417.988V172.955C417.988 171.651 417.586 170.632 416.782 169.896C415.977 169.161 414.737 168.793 413.061 168.793C411.82 168.793 410.681 168.993 409.642 169.395C408.602 169.762 407.546 170.314 406.474 171.05L404.915 166.686C406.189 165.817 407.513 165.182 408.887 164.781C410.295 164.346 411.804 164.129 413.413 164.129C416.664 164.129 419.061 164.931 420.603 166.536C422.179 168.141 422.966 170.18 422.966 172.655V184.34L425.33 187.8L420.855 190.609ZM412.96 186.346C414.502 186.346 415.726 185.945 416.631 185.142C417.536 184.306 417.988 183.237 417.988 181.933V180.278C417.988 179.743 417.687 179.559 417.083 179.726L414.67 180.278H412.91C411.804 180.278 410.932 180.528 410.295 181.03C409.692 181.531 409.39 182.234 409.39 183.136C409.39 184.039 409.709 184.808 410.346 185.443C411.016 186.045 411.888 186.346 412.96 186.346Z" fill="#0A0F0D"/>
<path d="M437.401 190.007C435.658 190.007 434.25 189.489 433.177 188.452C432.105 187.382 431.568 186.012 431.568 184.34V169.244H427.345V164.731H430.915C431.216 164.731 431.451 164.63 431.619 164.43C431.786 164.229 431.954 163.778 432.121 163.075C432.289 162.34 432.507 161.186 432.775 159.615L433.026 158.411H436.898V164.731H442.278V169.244H436.898V183.838C436.898 184.273 437.016 184.624 437.25 184.892C437.485 185.159 437.82 185.293 438.256 185.293H442.48V190.007H437.401Z" fill="#0A0F0D"/>
<path d="M449.844 190.007V169.294H445.922V164.731H455.275V190.007H449.844ZM449.844 160.367V154.901H455.275V160.367H449.844Z" fill="#0A0F0D"/>
<path d="M471.807 190.559C468.756 190.559 466.343 189.74 464.566 188.101C462.823 186.43 461.801 184.34 461.499 181.832C461.298 180.227 461.197 178.756 461.197 177.419C461.197 176.717 461.214 175.998 461.248 175.262C461.315 174.527 461.398 173.741 461.499 172.905C461.834 170.398 462.873 168.325 464.617 166.686C466.36 165.015 468.756 164.179 471.807 164.179C474.891 164.179 477.304 164.998 479.048 166.636C480.824 168.275 481.863 170.364 482.165 172.905C482.366 174.544 482.467 176.048 482.467 177.419C482.467 178.756 482.366 180.227 482.165 181.832C481.83 184.34 480.791 186.43 479.048 188.101C477.304 189.74 474.891 190.559 471.807 190.559ZM471.807 186.045C473.449 186.045 474.69 185.577 475.528 184.641C476.399 183.671 476.902 182.551 477.036 181.281C477.17 179.876 477.237 178.589 477.237 177.419C477.237 176.249 477.17 174.945 477.036 173.507C476.902 172.203 476.399 171.083 475.528 170.147C474.69 169.211 473.449 168.743 471.807 168.743C470.231 168.743 468.991 169.211 468.086 170.147C467.214 171.083 466.728 172.203 466.628 173.507C466.494 174.945 466.427 176.249 466.427 177.419C466.46 178.589 466.544 179.876 466.678 181.281C466.812 182.551 467.298 183.671 468.136 184.641C469.008 185.577 470.231 186.045 471.807 186.045Z" fill="#0A0F0D"/>
<path d="M497.918 190.559C494.868 190.559 492.454 189.74 490.678 188.101C488.935 186.43 487.912 184.34 487.611 181.832C487.409 180.227 487.309 178.756 487.309 177.419C487.309 176.717 487.326 175.998 487.359 175.262C487.426 174.527 487.51 173.741 487.611 172.905C487.946 170.398 488.985 168.325 490.728 166.686C492.471 165.015 494.868 164.179 497.918 164.179C501.002 164.179 503.416 164.998 505.159 166.636C506.936 168.275 507.975 170.364 508.277 172.905C508.478 174.544 508.578 176.048 508.578 177.419C508.578 178.756 508.478 180.227 508.277 181.832C507.941 184.34 506.902 186.43 505.159 188.101C503.416 189.74 501.002 190.559 497.918 190.559ZM497.918 186.045C499.561 186.045 500.801 185.577 501.639 184.641C502.511 183.671 503.014 182.551 503.148 181.281C503.282 179.876 503.349 178.589 503.349 177.419C503.349 176.249 503.282 174.945 503.148 173.507C503.014 172.203 502.511 171.083 501.639 170.147C500.801 169.211 499.561 168.743 497.918 168.743C496.343 168.743 495.103 169.211 494.198 170.147C493.326 171.083 492.84 172.203 492.739 173.507C492.605 174.945 492.538 176.249 492.538 177.419C492.572 178.589 492.656 179.876 492.79 181.281C492.924 182.551 493.41 183.671 494.248 184.641C495.119 185.577 496.343 186.045 497.918 186.045Z" fill="#0A0F0D"/>
<path d="M514.531 190.007V164.731H519.962V166.185C520.699 165.583 521.588 165.098 522.627 164.731C523.7 164.329 524.873 164.129 526.147 164.129C527.789 164.129 529.247 164.446 530.521 165.082C531.829 165.683 532.834 166.569 533.538 167.74C534.276 168.876 534.644 170.264 534.644 171.902V190.007H529.214V173.206C529.214 171.869 528.845 170.832 528.108 170.097C527.404 169.361 526.247 168.993 524.638 168.993C523.096 168.993 521.923 169.361 521.118 170.097C520.347 170.832 519.962 171.869 519.962 173.206V190.007H514.531Z" fill="#0A0F0D"/>
<path d="M564.321 190.559C561.27 190.559 558.857 189.74 557.08 188.101C555.337 186.43 554.315 184.34 554.013 181.832C553.812 180.227 553.711 178.756 553.711 177.419C553.711 176.717 553.728 175.998 553.762 175.262C553.829 174.527 553.912 173.741 554.013 172.905C554.348 170.398 555.387 168.325 557.131 166.686C558.874 165.015 561.27 164.179 564.321 164.179C567.405 164.179 569.819 164.998 571.562 166.636C573.338 168.275 574.377 170.364 574.679 172.905C574.88 174.544 574.981 176.048 574.981 177.419C574.981 178.756 574.88 180.227 574.679 181.832C574.344 184.34 573.305 186.43 571.562 188.101C569.819 189.74 567.405 190.559 564.321 190.559ZM564.321 186.045C565.963 186.045 567.204 185.577 568.042 184.641C568.913 183.671 569.416 182.551 569.55 181.281C569.684 179.876 569.751 178.589 569.751 177.419C569.751 176.249 569.684 174.945 569.55 173.507C569.416 172.203 568.913 171.083 568.042 170.147C567.204 169.211 565.963 168.743 564.321 168.743C562.745 168.743 561.505 169.211 560.6 170.147C559.728 171.083 559.242 172.203 559.142 173.507C559.008 174.945 558.941 176.249 558.941 177.419C558.974 178.589 559.058 179.876 559.192 181.281C559.326 182.551 559.812 183.671 560.65 184.641C561.522 185.577 562.745 186.045 564.321 186.045Z" fill="#0A0F0D"/>
<path d="M581.674 190.007V169.294H576.847V164.731H581.674V161.12C581.674 159.448 582.06 157.943 582.831 156.606C583.602 155.235 584.758 154.165 586.3 153.396C587.876 152.627 589.803 152.243 592.083 152.243C593.692 152.243 595.167 152.493 596.508 152.995C597.849 153.463 598.972 154.098 599.877 154.901L597.916 158.762C597.145 158.094 596.307 157.609 595.401 157.308C594.53 156.974 593.608 156.807 592.636 156.807C590.759 156.807 589.334 157.191 588.362 157.96C587.423 158.696 586.954 159.715 586.954 161.019V164.731H593.038V169.294H586.954V190.007H581.674Z" fill="#0A0F0D"/>
<path d="M618.047 190.007C616.304 190.007 614.896 189.489 613.823 188.452C612.751 187.382 612.214 186.012 612.214 184.34V169.244H607.991V164.731H611.561C611.862 164.731 612.097 164.63 612.265 164.43C612.432 164.229 612.6 163.778 612.767 163.075C612.935 162.34 613.153 161.186 613.421 159.615L613.672 158.411H617.544V164.731H622.924V169.244H617.544V183.838C617.544 184.273 617.662 184.624 617.896 184.892C618.131 185.159 618.466 185.293 618.902 185.293H623.126V190.007H618.047Z" fill="#0A0F0D"/>
<path d="M628.529 190.007V152.393H633.859V165.984C634.597 165.483 635.502 165.048 636.575 164.68C637.647 164.313 638.837 164.129 640.145 164.129C641.754 164.129 643.195 164.446 644.469 165.082C645.743 165.683 646.732 166.569 647.436 167.74C648.173 168.91 648.542 170.297 648.542 171.902V190.007H643.162V173.407C643.162 172.003 642.793 170.916 642.055 170.147C641.318 169.378 640.195 168.993 638.687 168.993C637.077 168.993 635.871 169.378 635.066 170.147C634.262 170.916 633.859 172.003 633.859 173.407V190.007H628.529Z" fill="#0A0F0D"/>
<path d="M665.431 190.509C663.285 190.509 661.441 190.141 659.899 189.405C658.357 188.636 657.134 187.6 656.229 186.296C655.324 184.992 654.754 183.521 654.519 181.882C654.419 181.08 654.335 180.328 654.268 179.626C654.234 178.924 654.218 178.221 654.218 177.519C654.218 176.182 654.318 174.694 654.519 173.056C654.821 170.515 655.827 168.408 657.536 166.737C659.246 165.065 661.559 164.229 664.475 164.229C666.453 164.229 668.079 164.563 669.353 165.232C670.66 165.901 671.682 166.803 672.42 167.94C673.157 169.044 673.677 170.297 673.979 171.702C674.28 173.106 674.431 174.544 674.431 176.015L673.425 178.623H656.631L656.581 174.51H669.403C669.403 173.541 669.269 172.621 669.001 171.752C668.732 170.849 668.246 170.113 667.542 169.545C666.838 168.977 665.833 168.693 664.525 168.693C662.916 168.693 661.693 169.194 660.855 170.197C660.017 171.167 659.547 172.387 659.447 173.858C659.38 174.694 659.33 175.731 659.296 176.968C659.263 178.171 659.313 179.525 659.447 181.03C659.615 182.568 660.201 183.788 661.207 184.691C662.212 185.594 663.62 186.045 665.431 186.045C666.57 186.045 667.676 185.878 668.749 185.544C669.822 185.176 670.844 184.674 671.816 184.039L673.275 188.051C672.001 188.92 670.76 189.556 669.554 189.957C668.347 190.325 666.973 190.509 665.431 190.509Z" fill="#0A0F0D"/>
<path d="M695.374 189.907L691.402 164.731H696.38L698.441 178.221L698.492 181.582C698.525 181.916 698.643 182.083 698.844 182.083C699.078 182.083 699.229 181.949 699.296 181.682L703.369 164.731H706.537L710.61 181.682C710.677 181.949 710.811 182.083 711.012 182.083C711.247 182.083 711.364 181.916 711.364 181.582L711.465 178.221L713.577 164.731H718.504L714.482 189.907H709.453L705.431 175.313C705.364 174.978 705.213 174.811 704.978 174.811C704.744 174.811 704.576 174.978 704.475 175.313L700.453 189.907H695.374Z" fill="#0A0F0D"/>
<path d="M732.506 190.559C729.456 190.559 727.042 189.74 725.266 188.101C723.523 186.43 722.5 184.34 722.198 181.832C721.997 180.227 721.897 178.756 721.897 177.419C721.897 176.717 721.913 175.998 721.947 175.262C722.014 174.527 722.098 173.741 722.198 172.905C722.534 170.398 723.573 168.325 725.316 166.686C727.059 165.015 729.456 164.179 732.506 164.179C735.59 164.179 738.004 164.998 739.747 166.636C741.524 168.275 742.563 170.364 742.865 172.905C743.066 174.544 743.166 176.048 743.166 177.419C743.166 178.756 743.066 180.227 742.865 181.832C742.529 184.34 741.49 186.43 739.747 188.101C738.004 189.74 735.59 190.559 732.506 190.559ZM732.506 186.045C734.149 186.045 735.389 185.577 736.227 184.641C737.099 183.671 737.602 182.551 737.736 181.281C737.87 179.876 737.937 178.589 737.937 177.419C737.937 176.249 737.87 174.945 737.736 173.507C737.602 172.203 737.099 171.083 736.227 170.147C735.389 169.211 734.149 168.743 732.506 168.743C730.931 168.743 729.69 169.211 728.785 170.147C727.914 171.083 727.428 172.203 727.327 173.507C727.193 174.945 727.126 176.249 727.126 177.419C727.16 178.589 727.243 179.876 727.378 181.281C727.512 182.551 727.998 183.671 728.836 184.641C729.707 185.577 730.931 186.045 732.506 186.045Z" fill="#0A0F0D"/>
<path d="M756.913 190.559C755.304 190.559 753.863 190.258 752.589 189.656C751.348 189.054 750.36 188.168 749.622 186.998C748.918 185.828 748.566 184.424 748.566 182.785V164.731H753.997V181.481C753.997 182.819 754.349 183.855 755.053 184.591C755.79 185.326 756.946 185.694 758.522 185.694C760.131 185.694 761.321 185.326 762.092 184.591C762.863 183.855 763.249 182.819 763.249 181.481V164.731H768.679V190.007H763.198V189.004C763.198 188.703 763.098 188.519 762.897 188.452C762.729 188.352 762.494 188.386 762.193 188.553L759.377 190.258C758.74 190.458 757.919 190.559 756.913 190.559Z" fill="#0A0F0D"/>
<path d="M775.918 190.007V164.731H781.349V166.185C782.086 165.583 782.975 165.098 784.014 164.731C785.086 164.329 786.26 164.129 787.534 164.129C789.176 164.129 790.634 164.446 791.908 165.082C793.215 165.683 794.221 166.569 794.925 167.74C795.663 168.876 796.031 170.264 796.031 171.902V190.007H790.601V173.206C790.601 171.869 790.232 170.832 789.495 170.097C788.791 169.361 787.634 168.993 786.025 168.993C784.483 168.993 783.31 169.361 782.505 170.097C781.734 170.832 781.349 171.869 781.349 173.206V190.007H775.918Z" fill="#0A0F0D"/>
<path d="M811.158 190.509C808.241 190.509 806.029 189.74 804.52 188.202C803.012 186.664 802.14 184.607 801.906 182.033C801.839 181.097 801.788 180.261 801.755 179.525C801.721 178.756 801.705 178.021 801.705 177.319C801.705 176.55 801.721 175.797 801.755 175.062C801.788 174.326 801.839 173.524 801.906 172.655C802.174 170.047 803.079 167.99 804.621 166.486C806.163 164.948 808.409 164.179 811.359 164.179C812.499 164.179 813.588 164.346 814.627 164.68C815.7 165.015 816.538 165.449 817.141 165.984V152.393H822.572V190.007H817.141V189.004C817.141 188.703 817.041 188.519 816.84 188.452C816.672 188.352 816.421 188.386 816.085 188.553L813.32 190.258C812.985 190.325 812.649 190.375 812.314 190.408C812.012 190.475 811.627 190.509 811.158 190.509ZM812.264 185.995C813.839 185.995 815.046 185.61 815.884 184.841C816.722 184.072 817.141 183.086 817.141 181.882V172.805C817.141 171.568 816.739 170.598 815.935 169.896C815.13 169.161 813.906 168.793 812.264 168.793C810.621 168.793 809.415 169.227 808.644 170.097C807.873 170.933 807.42 171.952 807.286 173.156C807.152 174.527 807.085 175.931 807.085 177.369C807.085 178.773 807.152 180.177 807.286 181.582C807.386 182.785 807.822 183.822 808.593 184.691C809.364 185.56 810.588 185.995 812.264 185.995Z" fill="#0A0F0D"/>
<path d="M839.618 190.509C837.473 190.509 835.629 190.141 834.087 189.405C832.545 188.636 831.322 187.6 830.417 186.296C829.512 184.992 828.942 183.521 828.707 181.882C828.606 181.08 828.523 180.328 828.456 179.626C828.422 178.924 828.405 178.221 828.405 177.519C828.405 176.182 828.506 174.694 828.707 173.056C829.009 170.515 830.014 168.408 831.724 166.737C833.434 165.065 835.747 164.229 838.663 164.229C840.641 164.229 842.267 164.563 843.54 165.232C844.848 165.901 845.87 166.803 846.608 167.94C847.345 169.044 847.865 170.297 848.166 171.702C848.468 173.106 848.619 174.544 848.619 176.015L847.613 178.623H830.819L830.769 174.51H843.591C843.591 173.541 843.457 172.621 843.188 171.752C842.92 170.849 842.434 170.113 841.73 169.545C841.026 168.977 840.021 168.693 838.713 168.693C837.104 168.693 835.881 169.194 835.043 170.197C834.205 171.167 833.735 172.387 833.635 173.858C833.568 174.694 833.517 175.731 833.484 176.968C833.45 178.171 833.501 179.525 833.635 181.03C833.802 182.568 834.389 183.788 835.395 184.691C836.4 185.594 837.808 186.045 839.618 186.045C840.758 186.045 841.864 185.878 842.937 185.544C844.01 185.176 845.032 184.674 846.004 184.039L847.462 188.051C846.189 188.92 844.948 189.556 843.742 189.957C842.535 190.325 841.16 190.509 839.618 190.509Z" fill="#0A0F0D"/>
<path d="M862.202 190.509C859.286 190.509 857.074 189.74 855.565 188.202C854.057 186.664 853.185 184.607 852.95 182.033C852.883 181.097 852.833 180.261 852.799 179.525C852.766 178.756 852.749 178.021 852.749 177.319C852.749 176.55 852.766 175.797 852.799 175.062C852.833 174.326 852.883 173.524 852.95 172.655C853.219 170.047 854.124 167.99 855.666 166.486C857.208 164.948 859.454 164.179 862.403 164.179C863.543 164.179 864.633 164.346 865.672 164.68C866.745 165.015 867.583 165.449 868.186 165.984V152.393H873.616V190.007H868.186V189.004C868.186 188.703 868.085 188.519 867.884 188.452C867.717 188.352 867.465 188.386 867.13 188.553L864.364 190.258C864.029 190.325 863.694 190.375 863.359 190.408C863.057 190.475 862.672 190.509 862.202 190.509ZM863.309 185.995C864.884 185.995 866.091 185.61 866.929 184.841C867.767 184.072 868.186 183.086 868.186 181.882V172.805C868.186 171.568 867.784 170.598 866.979 169.896C866.175 169.161 864.951 168.793 863.309 168.793C861.666 168.793 860.459 169.227 859.688 170.097C858.917 170.933 858.465 171.952 858.331 173.156C858.197 174.527 858.129 175.931 858.129 177.369C858.129 178.773 858.197 180.177 858.331 181.582C858.431 182.785 858.867 183.822 859.638 184.691C860.409 185.56 861.632 185.995 863.309 185.995Z" fill="#0A0F0D"/>
</svg>
