<svg width="191" height="40" viewBox="0 0 191 40" fill="none" xmlns="http://www.w3.org/2000/svg">
<g id="Full_Logo_Blue+Black" clip-path="url(#clip0_3_408)">
<g id="&#208;&#168;&#208;&#176;&#209;&#128;_1">
<g id="Group">
<g id="Group_2">
<path id="Vector" d="M43.0827 0.456055H39.1707H36.3467H33.8987V24.3547H39.1707V4.66405H43.0827V24.3547H48.3547V0.456055H45.6667H43.0827Z" fill="#0A0F0D"/>
<path id="Vector_2" d="M61.0427 0.456055H54.3413L51.2107 24.3547H56.4827L56.9947 19.2641H61.0853L61.6187 24.3547H66.856L63.7307 0.456055H61.0427ZM59.696 4.32805L60.7067 15.4241H57.3707L58.3787 4.32805H59.696Z" fill="#0A0F0D"/>
<path id="Vector_3" d="M82.032 2.22405C81.328 1.57339 80.4613 1.11739 79.4293 0.853388C78.3973 0.589388 77.2 0.456055 75.84 0.456055H69.752V24.3547H74.9893V18.2587H75.4987C77.2453 18.2587 78.7653 17.9787 80.056 17.4214C81.3493 16.8614 82.352 15.9281 83.0667 14.6161C83.7813 13.3041 84.1387 11.5121 84.1387 9.23472C84.1387 7.48805 83.9627 6.04539 83.6107 4.90672C83.2587 3.76805 82.7307 2.87472 82.0293 2.22405H82.032ZM78.664 12.4374C78.4587 13.1681 78.1093 13.6721 77.6107 13.9467C77.112 14.2214 76.408 14.3574 75.5013 14.3574H74.992V4.36005H75.6373C76.4987 4.36005 77.1733 4.47739 77.6613 4.70939C78.1493 4.94405 78.488 5.41072 78.6827 6.11205C78.8747 6.81339 78.9707 7.85605 78.9707 9.23739C78.9707 10.6187 78.8693 11.7067 78.664 12.4374Z" fill="#0A0F0D"/>
<path id="Vector_4" d="M95.1627 0.456055H88.4613L85.3307 24.3547H90.6027L91.1147 19.2641H95.2053L95.7387 24.3547H100.976L97.848 0.456055H95.16H95.1627ZM93.8133 4.32805L94.824 15.4241H91.488L92.496 4.32805H93.8133Z" fill="#0A0F0D"/>
<path id="Vector_5" d="M115.08 12.6534C115.357 12.5014 115.619 12.3334 115.859 12.1467C117.275 11.0587 117.984 9.37872 117.984 7.10139C117.984 4.82405 117.349 3.02139 116.08 1.99472C114.811 0.968055 112.747 0.456055 109.888 0.456055H103.867V24.3547H110.024C112.859 24.3547 114.963 23.8561 116.333 22.8614C117.704 21.8667 118.392 20.2187 118.392 17.9227C118.392 16.3787 118.056 15.1681 117.389 14.2961C116.832 13.5681 116.061 13.0214 115.08 12.6534ZM109.685 4.20539C110.48 4.20539 111.096 4.29339 111.539 4.46405C111.981 4.63739 112.288 4.96272 112.456 5.44005C112.627 5.91739 112.712 6.59472 112.712 7.46672C112.712 8.80805 112.536 9.77872 112.184 10.3787C111.832 10.9787 111 11.2774 109.683 11.2774H108.933V4.20539H109.683H109.685ZM112.459 20.0107C111.971 20.4081 111.08 20.6054 109.789 20.6054H108.939V14.6321H109.789C111.083 14.6321 111.971 14.8294 112.459 15.2267C112.947 15.6241 113.189 16.4214 113.189 17.6187C113.189 18.8161 112.947 19.6161 112.459 20.0107Z" fill="#0A0F0D"/>
<path id="Vector_6" d="M133.157 0.914667C132.069 0.304 130.595 0 128.736 0C126.877 0 125.437 0.304 124.347 0.914667C123.259 1.52533 122.48 2.408 122.016 3.56533C121.552 4.72267 121.32 6.096 121.32 7.68V17.0987C121.32 18.704 121.552 20.08 122.016 21.2293C122.48 22.3787 123.259 23.2613 124.347 23.8827C125.435 24.5013 126.899 24.8133 128.736 24.8133C130.573 24.8133 132.069 24.504 133.157 23.8827C134.245 23.264 135.021 22.3787 135.488 21.2293C135.952 20.0827 136.184 18.704 136.184 17.0987V7.68267C136.184 6.09867 135.952 4.72533 135.488 3.568C135.024 2.41067 134.245 1.52533 133.157 0.917333V0.914667ZM130.845 17.1013C130.845 18.504 130.715 19.4853 130.453 20.0427C130.192 20.6027 129.619 20.88 128.736 20.88C127.853 20.88 127.28 20.6 127.019 20.0427C126.757 19.4827 126.627 18.504 126.627 17.1013V7.68267C126.627 6.30133 126.757 5.32533 127.019 4.75733C127.28 4.18933 127.853 3.904 128.736 3.904C129.619 3.904 130.192 4.18933 130.453 4.75733C130.715 5.32533 130.845 6.30133 130.845 7.68267V17.1013Z" fill="#0A0F0D"/>
<path id="Vector_7" d="M149.416 0.456055H141.491V2.57339C141.491 3.43739 141.485 4.38672 141.475 5.42405C141.464 6.46139 141.451 7.51739 141.44 8.59472C141.429 9.67205 141.416 10.7174 141.405 11.7334C141.395 12.7494 141.376 13.6694 141.355 14.4907C141.331 15.3147 141.309 15.9787 141.285 16.4881C141.24 17.6667 141.139 18.5521 140.979 19.1414C140.819 19.7307 140.515 20.1334 140.061 20.3467C139.608 20.5601 138.915 20.6667 137.987 20.6667V24.4774L140.197 24.6001C141.581 24.6001 142.675 24.4027 143.48 24.0054C144.285 23.6081 144.869 22.9281 145.232 21.9627C145.595 20.9974 145.832 19.6721 145.947 17.9841C145.992 17.1921 146.027 16.2774 146.048 15.2401C146.069 14.2027 146.088 13.0854 146.099 11.8881C146.109 10.6881 146.128 9.44005 146.149 8.13872C146.168 6.98139 146.189 5.82139 146.211 4.66405H149.416V24.3547H154.621V0.456055H149.416Z" fill="#0A0F0D"/>
<path id="Vector_8" d="M167.344 0.456055H160.643L157.512 24.3547H162.784L163.296 19.2641H167.387L167.92 24.3547H173.157L170.027 0.456055H167.339H167.344ZM165.995 4.32805L167.005 15.4241H163.669L164.677 4.32805H165.995Z" fill="#0A0F0D"/>
<path id="Vector_9" d="M185.339 0.456055V11.6134H181.323V0.456055H176.051V24.3547H181.323V15.7601H185.339V24.3547H190.611V0.456055H185.339Z" fill="#0A0F0D"/>
</g>
<g id="Group_3">
<path id="Vector_10" d="M33.8987 37.8105V30.7811H34.8427L36.368 33.6745C36.3947 33.7225 36.4293 33.7438 36.4747 33.7438C36.52 33.7438 36.5493 33.7198 36.5707 33.6745L38.1067 30.7811H39.04V37.8105H37.9653V33.8825L38.0747 33.1491C38.088 33.1011 38.0747 33.0691 38.04 33.0531C38.0027 33.0371 37.968 33.0531 37.9333 33.1091L36.7093 35.2878H36.1973L35.0027 33.1091C34.976 33.0558 34.944 33.0371 34.9067 33.0531C34.8693 33.0691 34.856 33.1011 34.8613 33.1491L34.9813 33.8825V37.8105H33.896H33.8987Z" fill="#0A0F0D"/>
<path id="Vector_11" d="M43.28 37.9307L42.9493 37.4587C42.896 37.384 42.84 37.3787 42.7787 37.4373C42.6187 37.5707 42.4453 37.6827 42.2613 37.7733C42.0773 37.864 41.84 37.9093 41.552 37.9093C41.0693 37.9093 40.688 37.7733 40.408 37.5013C40.128 37.2293 39.9867 36.88 39.9867 36.4507C39.9867 36.144 40.056 35.8827 40.1973 35.672C40.3387 35.4613 40.5333 35.3013 40.784 35.1893C41.0347 35.0773 41.3253 35.024 41.6533 35.024H42.7067V34.392C42.7067 34.1307 42.6267 33.928 42.4667 33.7787C42.3067 33.632 42.0587 33.5573 41.7227 33.5573C41.4747 33.5573 41.248 33.5947 41.04 33.672C40.832 33.7493 40.6213 33.8613 40.408 34.008L40.096 33.1333C40.3493 32.96 40.616 32.8293 40.8933 32.7467C41.1707 32.664 41.472 32.6213 41.792 32.6213C42.4427 32.6213 42.9227 32.7813 43.232 33.104C43.5413 33.4267 43.6987 33.8347 43.6987 34.3307V36.672L44.1707 37.3653L43.2773 37.928L43.28 37.9307ZM41.704 37.0773C42.0107 37.0773 42.256 36.9947 42.4373 36.832C42.6187 36.6693 42.7093 36.456 42.7093 36.1947V35.864C42.7093 35.7573 42.648 35.72 42.528 35.7547L42.0453 35.864H41.6933C41.472 35.864 41.2987 35.9147 41.176 36.016C41.0533 36.1173 40.9893 36.256 40.9893 36.4373C40.9893 36.6187 41.0533 36.7707 41.184 36.8933C41.3147 37.016 41.488 37.08 41.7013 37.08L41.704 37.0773Z" fill="#0A0F0D"/>
<path id="Vector_12" d="M46.8613 37.9414C46.2373 37.9414 45.752 37.7734 45.4 37.4401C45.048 37.1067 44.8427 36.6881 44.7813 36.1841C44.7413 35.8507 44.72 35.5494 44.72 35.2801C44.72 35.1387 44.7253 34.9974 44.736 34.8534C44.7467 34.7094 44.76 34.5547 44.7813 34.3867C44.848 33.8774 45.056 33.4587 45.4053 33.1254C45.7547 32.7947 46.2347 32.6294 46.8507 32.6294C47.152 32.6294 47.4187 32.6667 47.6533 32.7441C47.888 32.8214 48.1093 32.9361 48.3173 33.0907L48.016 33.9147C47.8427 33.8001 47.6667 33.7121 47.4933 33.6481C47.32 33.5841 47.1173 33.5521 46.8907 33.5521C46.5627 33.5521 46.304 33.6427 46.112 33.8294C45.92 34.0134 45.8187 34.2374 45.8053 34.4961C45.784 34.7894 45.7733 35.0561 45.7707 35.2907C45.768 35.5254 45.7787 35.7867 45.8053 36.0747C45.8267 36.3281 45.928 36.5494 46.1173 36.7387C46.304 36.9254 46.568 37.0187 46.912 37.0187C47.112 37.0187 47.3093 36.9894 47.4987 36.9334C47.6907 36.8774 47.8773 36.7867 48.0667 36.6667L48.3467 37.4614C48.1067 37.6294 47.8667 37.7521 47.6293 37.8267C47.392 37.9041 47.136 37.9414 46.8613 37.9414Z" fill="#0A0F0D"/>
<path id="Vector_13" d="M51.0427 37.92C50.432 37.92 49.952 37.7547 49.6027 37.424C49.2507 37.0933 49.0453 36.6747 48.984 36.1733C48.944 35.8507 48.9227 35.5573 48.9227 35.2907C48.9227 35.1493 48.928 35.0053 48.9387 34.8587C48.9493 34.712 48.9627 34.5547 48.984 34.3867C49.0507 33.8853 49.2587 33.4667 49.608 33.136C49.9573 32.8053 50.4347 32.64 51.0453 32.64C51.656 32.64 52.144 32.8053 52.496 33.1333C52.848 33.4613 53.0533 33.88 53.1147 34.3893C53.1547 34.7173 53.176 35.0187 53.176 35.2933C53.176 35.568 53.1547 35.856 53.1147 36.176C53.048 36.6773 52.84 37.096 52.4907 37.4267C52.1413 37.7573 51.6613 37.9227 51.0453 37.9227L51.0427 37.92ZM51.0427 37.016C51.3707 37.016 51.6213 36.92 51.792 36.7307C51.9627 36.5387 52.0613 36.3173 52.088 36.064C52.1147 35.7813 52.128 35.5253 52.128 35.2907C52.128 35.056 52.1147 34.7947 52.088 34.5067C52.0613 34.2453 51.9627 34.0213 51.792 33.8347C51.6213 33.648 51.3707 33.5547 51.0427 33.5547C50.7147 33.5547 50.4827 33.648 50.304 33.8347C50.1253 34.0213 50.0267 34.2453 50.008 34.5067C49.9813 34.7947 49.9707 35.056 49.9733 35.2907C49.976 35.5253 49.992 35.784 50.0187 36.064C50.0453 36.3173 50.144 36.5413 50.3147 36.7307C50.4853 36.92 50.728 37.016 51.0427 37.016Z" fill="#0A0F0D"/>
<path id="Vector_14" d="M54.192 37.8107V32.7494H56.2C56.7627 32.7494 57.2 32.8694 57.5147 33.1067C57.8293 33.3441 57.9867 33.6881 57.9867 34.1361C57.9867 34.3761 57.92 34.5921 57.7867 34.7787C57.6533 34.9654 57.4693 35.1067 57.2347 35.2001C57.5147 35.2747 57.736 35.4134 57.8933 35.6214C58.0507 35.8294 58.1307 36.0827 58.1307 36.3841C58.1307 36.8401 57.9707 37.1921 57.6533 37.4374C57.336 37.6854 56.8853 37.8081 56.3013 37.8081H54.192V37.8107ZM55.256 34.8774H56.1707C56.4053 34.8774 56.5867 34.8214 56.7173 34.7121C56.848 34.6027 56.912 34.4454 56.912 34.2454C56.912 34.0454 56.848 33.9014 56.7173 33.7921C56.5867 33.6854 56.4053 33.6321 56.1707 33.6321H55.256V34.8774ZM55.256 36.9281H56.2693C56.5227 36.9281 56.7173 36.8747 56.848 36.7681C56.9787 36.6614 57.0427 36.5094 57.0427 36.3174C57.0427 36.1254 56.9787 35.9681 56.848 35.8561C56.7173 35.7441 56.5253 35.6854 56.2693 35.6854H55.256V36.9307V36.9281Z" fill="#0A0F0D"/>
<path id="Vector_15" d="M59.5493 37.8107V33.664H58.7653V32.7494H60.6347V37.8107H59.5493ZM59.5493 31.8747V30.7787H60.6347V31.8747H59.5493Z" fill="#0A0F0D"/>
<path id="Vector_16" d="M65.0027 37.8107V30.7814H69.16V31.8054H66.0453V33.8027H68.9867V34.7867H66.0453V36.7867H69.16V37.8107H65.0027Z" fill="#0A0F0D"/>
<path id="Vector_17" d="M70.1413 37.8107V32.7494H72.1493C72.712 32.7494 73.1493 32.8694 73.464 33.1067C73.7787 33.3441 73.936 33.6881 73.936 34.1361C73.936 34.3761 73.8693 34.5921 73.736 34.7787C73.6027 34.9654 73.4187 35.1067 73.184 35.2001C73.464 35.2747 73.6853 35.4134 73.8427 35.6214C74 35.8294 74.08 36.0827 74.08 36.3841C74.08 36.8401 73.92 37.1921 73.6027 37.4374C73.2853 37.6854 72.8347 37.8081 72.2507 37.8081H70.1413V37.8107ZM71.208 34.8774H72.1227C72.3573 34.8774 72.5387 34.8214 72.6693 34.7121C72.8 34.6027 72.864 34.4454 72.864 34.2454C72.864 34.0454 72.8 33.9014 72.6693 33.7921C72.5387 33.6854 72.3573 33.6321 72.1227 33.6321H71.208V34.8774ZM71.208 36.9281H72.2213C72.4747 36.9281 72.6693 36.8747 72.8 36.7681C72.9307 36.6614 72.9947 36.5094 72.9947 36.3174C72.9947 36.1254 72.9307 35.9681 72.8 35.8561C72.6693 35.7441 72.4773 35.6854 72.2213 35.6854H71.208V36.9307V36.9281Z" fill="#0A0F0D"/>
<path id="Vector_18" d="M78.1733 37.9307L77.8427 37.4587C77.7893 37.384 77.7333 37.3787 77.672 37.4373C77.512 37.5707 77.3387 37.6827 77.1547 37.7733C76.9707 37.864 76.7333 37.9093 76.4453 37.9093C75.9627 37.9093 75.5813 37.7733 75.3013 37.5013C75.0213 37.2293 74.88 36.88 74.88 36.4507C74.88 36.144 74.9493 35.8827 75.0907 35.672C75.232 35.4613 75.4267 35.3013 75.6773 35.1893C75.928 35.0773 76.2187 35.024 76.5467 35.024H77.6V34.392C77.6 34.1307 77.52 33.928 77.36 33.7787C77.2 33.632 76.952 33.5573 76.616 33.5573C76.368 33.5573 76.1413 33.5947 75.9333 33.672C75.7253 33.7493 75.5147 33.8613 75.3013 34.008L74.9893 33.1333C75.2427 32.96 75.5093 32.8293 75.7867 32.7467C76.064 32.664 76.3653 32.6213 76.6853 32.6213C77.336 32.6213 77.816 32.7813 78.1253 33.104C78.4347 33.4267 78.592 33.8347 78.592 34.3307V36.672L79.064 37.3653L78.1707 37.928L78.1733 37.9307ZM76.5973 37.0773C76.904 37.0773 77.1493 36.9947 77.3307 36.832C77.512 36.6693 77.6027 36.456 77.6027 36.1947V35.864C77.6027 35.7573 77.5413 35.72 77.4213 35.7547L76.9387 35.864H76.5867C76.3653 35.864 76.192 35.9147 76.0693 36.016C75.9467 36.1173 75.8827 36.256 75.8827 36.4373C75.8827 36.6187 75.9467 36.7707 76.0773 36.8933C76.208 37.016 76.3813 37.08 76.5947 37.08L76.5973 37.0773Z" fill="#0A0F0D"/>
<path id="Vector_19" d="M79.928 37.8107V32.7494H81.0027V34.7974H81.576L82.72 32.7494H83.856L82.3893 35.4107L82.3093 34.8881L83.9253 37.8107H82.7413L81.5653 35.7014H81.0027V37.8107H79.928Z" fill="#0A0F0D"/>
<path id="Vector_20" d="M85.1867 40.0001L84.864 39.0561C85.2187 38.9814 85.488 38.8454 85.672 38.6454C85.856 38.4454 85.992 38.1974 86.08 37.9014L86.2213 37.4294L84.464 32.7494H85.5787L86.552 35.5307L86.6534 36.2241C86.6587 36.2774 86.6854 36.3041 86.728 36.3041C86.7707 36.3041 86.7974 36.2774 86.8027 36.2241L86.9227 35.5307L87.7067 32.7494H88.8027L87.0747 38.2721C86.9413 38.7201 86.712 39.0961 86.3867 39.3974C86.0614 39.6987 85.6614 39.8987 85.1867 40.0001Z" fill="#0A0F0D"/>
<path id="Vector_21" d="M92.6933 37.9307L92.3627 37.4587C92.3093 37.384 92.2533 37.3787 92.192 37.4373C92.032 37.5707 91.8587 37.6827 91.6747 37.7733C91.4907 37.864 91.2533 37.9093 90.9653 37.9093C90.4827 37.9093 90.1013 37.7733 89.8213 37.5013C89.5413 37.2293 89.4 36.88 89.4 36.4507C89.4 36.144 89.4693 35.8827 89.6107 35.672C89.752 35.4613 89.9467 35.3013 90.1973 35.1893C90.448 35.0773 90.7387 35.024 91.0667 35.024H92.12V34.392C92.12 34.1307 92.04 33.928 91.88 33.7787C91.72 33.632 91.472 33.5573 91.136 33.5573C90.888 33.5573 90.6613 33.5947 90.4533 33.672C90.2453 33.7493 90.0347 33.8613 89.8213 34.008L89.5093 33.1333C89.7627 32.96 90.0293 32.8293 90.3067 32.7467C90.584 32.664 90.8853 32.6213 91.2053 32.6213C91.856 32.6213 92.336 32.7813 92.6453 33.104C92.9547 33.4267 93.112 33.8347 93.112 34.3307V36.672L93.584 37.3653L92.6907 37.928L92.6933 37.9307ZM91.1147 37.0773C91.4213 37.0773 91.6667 36.9947 91.848 36.832C92.0293 36.6693 92.12 36.456 92.12 36.1947V35.864C92.12 35.7573 92.0587 35.72 91.9387 35.7547L91.456 35.864H91.104C90.8827 35.864 90.7093 35.9147 90.5867 36.016C90.464 36.1173 90.4 36.256 90.4 36.4373C90.4 36.6187 90.464 36.7707 90.5947 36.8933C90.7253 37.016 90.8987 37.08 91.112 37.08L91.1147 37.0773Z" fill="#0A0F0D"/>
<path id="Vector_22" d="M94.4453 37.8107V32.7494H95.5307V36.9067H97.3173V32.7494H98.4027V37.8107H94.4453ZM98.0507 39.1174V36.9067H99.0453V39.1174H98.0507Z" fill="#0A0F0D"/>
<path id="Vector_23" d="M100.165 37.8107V33.664H99.3813V32.7494H101.251V37.8107H100.165ZM100.165 31.8747V30.7787H101.251V31.8747H100.165Z" fill="#0A0F0D"/>
<path id="Vector_24" d="M101.992 31.8747V30.7787H103.016V31.8747H101.992ZM103.056 37.8107V33.664H102.272V32.7494H104.141V37.8107H103.056ZM103.84 31.8747V30.7787H104.864V31.8747H103.84Z" fill="#0A0F0D"/>
<path id="Vector_25" d="M108.509 37.8107V30.7814H113.149V37.8107H112.005V31.7947H109.645V37.8107H108.509Z" fill="#0A0F0D"/>
<path id="Vector_26" d="M116.317 37.92C115.707 37.92 115.227 37.7547 114.877 37.424C114.525 37.0933 114.32 36.6747 114.259 36.1733C114.219 35.8507 114.197 35.5573 114.197 35.2907C114.197 35.1493 114.203 35.0053 114.213 34.8587C114.224 34.712 114.237 34.5547 114.259 34.3867C114.325 33.8853 114.533 33.4667 114.883 33.136C115.232 32.8053 115.709 32.64 116.32 32.64C116.931 32.64 117.419 32.8053 117.771 33.1333C118.123 33.4613 118.328 33.88 118.389 34.3893C118.429 34.7173 118.451 35.0187 118.451 35.2933C118.451 35.568 118.429 35.856 118.389 36.176C118.323 36.6773 118.115 37.096 117.765 37.4267C117.416 37.7573 116.936 37.9227 116.32 37.9227L116.317 37.92ZM116.317 37.016C116.645 37.016 116.896 36.92 117.067 36.7307C117.237 36.5387 117.336 36.3173 117.363 36.064C117.389 35.7813 117.403 35.5253 117.403 35.2907C117.403 35.056 117.389 34.7947 117.363 34.5067C117.336 34.2453 117.237 34.0213 117.067 33.8347C116.896 33.648 116.645 33.5547 116.317 33.5547C115.989 33.5547 115.757 33.648 115.579 33.8347C115.4 34.0213 115.301 34.2453 115.283 34.5067C115.256 34.7947 115.245 35.056 115.248 35.2907C115.251 35.5253 115.267 35.784 115.293 36.064C115.32 36.3173 115.419 36.5413 115.589 36.7307C115.76 36.92 116.003 37.016 116.317 37.016Z" fill="#0A0F0D"/>
<path id="Vector_27" d="M119.451 39.8187V32.7493H120.536V33.032C120.664 32.9173 120.829 32.824 121.037 32.7493C121.245 32.6747 121.461 32.64 121.691 32.64C122.285 32.64 122.736 32.792 123.043 33.096C123.347 33.4 123.525 33.8133 123.581 34.336C123.595 34.5093 123.605 34.672 123.611 34.8187C123.616 34.9653 123.621 35.1173 123.621 35.272C123.621 35.4133 123.619 35.5573 123.611 35.7093C123.603 35.8613 123.595 36.0293 123.581 36.216C123.533 36.7307 123.36 37.144 123.059 37.4507C122.757 37.76 122.315 37.912 121.733 37.912C121.64 37.912 121.563 37.9067 121.501 37.896C121.44 37.8853 121.373 37.8747 121.301 37.8613L120.749 37.52C120.688 37.4853 120.64 37.4827 120.597 37.504C120.557 37.528 120.536 37.5653 120.536 37.6187V39.8187H119.451ZM121.509 37.008C121.851 37.008 122.096 36.92 122.248 36.7467C122.397 36.5733 122.485 36.3653 122.504 36.1227C122.531 35.8427 122.544 35.56 122.544 35.2747C122.544 34.9893 122.531 34.712 122.504 34.4373C122.483 34.1973 122.397 33.9893 122.243 33.8187C122.088 33.648 121.845 33.5627 121.509 33.5627C121.173 33.5627 120.944 33.6347 120.781 33.7787C120.616 33.9227 120.536 34.1173 120.536 34.3653V36.184C120.536 36.424 120.621 36.6213 120.792 36.776C120.963 36.9307 121.203 37.008 121.509 37.008Z" fill="#0A0F0D"/>
<path id="Vector_28" d="M127.707 37.9307L127.376 37.4587C127.323 37.384 127.267 37.3787 127.205 37.4373C127.045 37.5707 126.872 37.6827 126.688 37.7733C126.504 37.864 126.267 37.9093 125.979 37.9093C125.496 37.9093 125.115 37.7733 124.835 37.5013C124.555 37.2293 124.413 36.88 124.413 36.4507C124.413 36.144 124.483 35.8827 124.624 35.672C124.765 35.4613 124.96 35.3013 125.211 35.1893C125.461 35.0773 125.752 35.024 126.08 35.024H127.133V34.392C127.133 34.1307 127.053 33.928 126.893 33.7787C126.733 33.632 126.485 33.5573 126.149 33.5573C125.901 33.5573 125.675 33.5947 125.467 33.672C125.259 33.7493 125.048 33.8613 124.835 34.008L124.523 33.1333C124.776 32.96 125.043 32.8293 125.32 32.7467C125.597 32.664 125.899 32.6213 126.219 32.6213C126.869 32.6213 127.349 32.7813 127.659 33.104C127.968 33.4267 128.125 33.8347 128.125 34.3307V36.672L128.597 37.3653L127.704 37.928L127.707 37.9307ZM126.131 37.0773C126.437 37.0773 126.683 36.9947 126.864 36.832C127.045 36.6693 127.136 36.456 127.136 36.1947V35.864C127.136 35.7573 127.075 35.72 126.955 35.7547L126.472 35.864H126.12C125.899 35.864 125.725 35.9147 125.603 36.016C125.48 36.1173 125.416 36.256 125.416 36.4373C125.416 36.6187 125.48 36.7707 125.611 36.8933C125.741 37.016 125.915 37.08 126.128 37.08L126.131 37.0773Z" fill="#0A0F0D"/>
<path id="Vector_29" d="M129.459 37.8107V32.7494H130.544V34.7974H132.341V32.7494H133.416V37.8107H132.341V35.7014H130.544V37.8107H129.459Z" fill="#0A0F0D"/>
<path id="Vector_30" d="M136.683 37.9119C136.253 37.9119 135.885 37.8373 135.579 37.6853C135.269 37.5333 135.027 37.3279 134.845 37.0666C134.664 36.8053 134.549 36.5119 134.504 36.1839C134.483 36.0239 134.469 35.872 134.459 35.7306C134.448 35.5893 134.443 35.4506 134.443 35.3093C134.443 35.0426 134.464 34.7439 134.504 34.4159C134.565 33.9066 134.765 33.4853 135.107 33.1493C135.448 32.8133 135.909 32.6479 136.493 32.6479C136.888 32.6479 137.216 32.7146 137.472 32.8479C137.731 32.9813 137.933 33.1599 138.08 33.3839C138.227 33.6079 138.331 33.8613 138.392 34.1413C138.453 34.4213 138.483 34.7093 138.483 35.0053L138.283 35.5279H134.928L134.917 34.7039H137.477C137.477 34.5093 137.451 34.3226 137.397 34.1466C137.344 33.9679 137.245 33.8239 137.107 33.7093C136.968 33.5946 136.765 33.5386 136.504 33.5386C136.181 33.5386 135.939 33.6373 135.771 33.8346C135.603 34.0319 135.509 34.2773 135.491 34.5733C135.477 34.7413 135.467 34.9466 135.461 35.1919C135.453 35.4373 135.464 35.7093 135.491 36.0106C135.525 36.3199 135.643 36.5626 135.843 36.7439C136.043 36.9253 136.325 37.0159 136.685 37.0159C136.912 37.0159 137.133 36.9813 137.349 36.9093C137.563 36.8399 137.768 36.7413 137.963 36.6133L138.253 37.4159C138 37.5893 137.752 37.7146 137.509 37.7919C137.267 37.8693 136.995 37.9066 136.685 37.9066L136.683 37.9119Z" fill="#0A0F0D"/>
<path id="Vector_31" d="M139.395 37.8107V32.7494H140.48V34.7974H142.277V32.7494H143.352V37.8107H142.277V35.7014H140.48V37.8107H139.395Z" fill="#0A0F0D"/>
<path id="Vector_32" d="M144.568 37.8107V32.7494H145.632V35.3707L145.501 36.1254C145.493 36.1734 145.509 36.2054 145.547 36.2267C145.584 36.2454 145.616 36.2347 145.643 36.1867L147.672 32.7521H148.627V37.8134H147.563V35.2427L147.683 34.4987C147.696 34.4454 147.683 34.4107 147.648 34.3921C147.611 34.3761 147.573 34.3974 147.533 34.4561L145.525 37.8107H144.571H144.568Z" fill="#0A0F0D"/>
<path id="Vector_33" d="M149.477 37.8107L150.923 35.2801L149.477 32.7494H150.661L151.435 34.2267L151.587 34.6881C151.6 34.7281 151.624 34.7494 151.661 34.7494C151.699 34.7494 151.723 34.7281 151.736 34.6881L151.896 34.2267L152.648 32.7494H153.832L152.395 35.2801L153.832 37.8107H152.648L151.896 36.3334L151.736 35.8721C151.723 35.8321 151.699 35.8107 151.661 35.8107C151.624 35.8107 151.6 35.8294 151.587 35.8721L151.435 36.3334L150.661 37.8107H149.477Z" fill="#0A0F0D"/>
</g>
<g id="Group_4">
<path id="Vector_34" d="M14.792 10.1254H9.86133V15.056H14.792V10.1254Z" fill="#0004E6"/>
<path id="Vector_35" d="M4.93067 0.264038H0V5.1947V15.0587H4.93067V5.1947H19.8507V15.0587H24.7813V5.1947V0.264038H19.8507H4.93067Z" fill="#0004E6"/>
<path id="Vector_36" d="M14.792 19.9894H9.86133V24.92H14.792V19.9894Z" fill="#0004E6"/>
<path id="Vector_37" d="M19.7227 15.0587H14.792V19.9894H19.7227V15.0587Z" fill="#0004E6"/>
<path id="Vector_38" d="M9.86133 15.0587H4.93066V19.9894H9.86133V15.0587Z" fill="#0004E6"/>
<path id="Vector_39" d="M0 26.9014L2.94933 29.8507L8.55733 35.4614L10.9173 37.8187H13.864L16.224 35.4614L21.832 29.8507L24.7813 26.9014V19.9894H19.8507V24.8587L12.736 31.9734H12.0453L4.93067 24.8587V19.9894H0V26.9014Z" fill="#0004E6"/>
</g>
</g>
</g>
</g>
<defs>
<clipPath id="clip0_3_408">
<rect width="190.611" height="40" fill="white"/>
</clipPath>
</defs>
</svg>
