<svg width="102" height="40" viewBox="0 0 102 40" fill="none" xmlns="http://www.w3.org/2000/svg">
<g id="&#208;&#168;&#208;&#176;&#209;&#128;_1">
<g id="Group">
<path id="Vector" d="M98.0112 3.69165H96.1653V5.53749H98.0112V3.69165Z" fill="#0004E6"/>
<path id="Vector_2" d="M99.9045 0H94.3195H92.4737V1.84584V5.53752H94.3195V1.84584H99.9045V5.53752H101.75V1.84584V0H99.9045Z" fill="#0004E6"/>
<path id="Vector_3" d="M98.0112 7.3833H96.1653V9.22914H98.0112V7.3833Z" fill="#0004E6"/>
<path id="Vector_4" d="M99.857 5.5376H98.0112V7.38344H99.857V5.5376Z" fill="#0004E6"/>
<path id="Vector_5" d="M96.1653 5.5376H94.3195V7.38344H96.1653V5.5376Z" fill="#0004E6"/>
<path id="Vector_6" d="M92.4737 9.97182L93.5768 11.0763L95.6775 13.1756L96.5597 14.0592H97.6642L98.5465 13.1756L100.647 11.0763L101.75 9.97182V7.3833H99.9045V9.20746L97.2414 11.8705H96.9826L94.3195 9.20746V7.3833H92.4737V9.97182Z" fill="#0004E6"/>
<g id="Group_2">
<path id="Vector_7" d="M58.804 7.66251C58.121 7.27898 57.194 7.08789 56.0271 7.08789C54.8602 7.08789 53.9549 7.27898 53.2705 7.66251C52.5875 8.04605 52.0983 8.60034 51.8069 9.32811C51.5141 10.0559 51.3691 10.9165 51.3691 11.9126V17.8282C51.3691 18.8365 51.5155 19.7011 51.8069 20.4221C52.0983 21.1431 52.5861 21.6988 53.2705 22.0877C53.9536 22.4767 54.8724 22.6718 56.0271 22.6718C57.1818 22.6718 58.121 22.4767 58.804 22.0877C59.487 21.6988 59.9749 21.1431 60.2677 20.4221C60.559 19.7011 60.7054 18.8365 60.7054 17.8282V11.9126C60.7054 10.9165 60.559 10.0559 60.2677 9.32811C59.9749 8.60034 59.4884 8.04605 58.804 7.66251ZM57.3512 17.8282C57.3512 18.7091 57.2685 19.3244 57.1059 19.6754C56.9419 20.0264 56.5828 20.2012 56.0271 20.2012C55.4715 20.2012 55.1123 20.0264 54.9483 19.6754C54.7844 19.3244 54.703 18.7091 54.703 17.8282V11.9126C54.703 11.0452 54.7844 10.4326 54.9483 10.0748C55.1123 9.71706 55.4715 9.53817 56.0271 9.53817C56.5828 9.53817 56.9419 9.71706 57.1059 10.0748C57.2699 10.4326 57.3512 11.0452 57.3512 11.9126V17.8282Z" fill="#0A0F0D"/>
<path id="Vector_8" d="M7.71269 8.47556C7.27088 8.06763 6.72607 7.78032 6.07826 7.61362C5.43046 7.44828 4.6783 7.36426 3.8245 7.36426H0V22.3736H3.29053V18.545H3.61037C4.70676 18.545 5.66085 18.3702 6.47264 18.0192C7.28443 17.6682 7.91462 17.0814 8.3632 16.2574C8.81179 15.4347 9.03676 14.3085 9.03676 12.8787C9.03676 11.781 8.92563 10.8757 8.70608 10.1601C8.48518 9.44591 8.1545 8.88349 7.71269 8.47556ZM5.59715 14.8886C5.46841 15.348 5.2475 15.6638 4.93444 15.8359C4.62138 16.008 4.17957 16.0947 3.61037 16.0947H3.29053V9.81589H3.6971C4.23785 9.81589 4.66204 9.88908 4.96832 10.0354C5.27461 10.1818 5.48873 10.4759 5.60935 10.9164C5.72997 11.3568 5.79095 12.0114 5.79095 12.8787C5.79095 13.7461 5.72726 14.4291 5.59851 14.8886H5.59715Z" fill="#0A0F0D"/>
<path id="Vector_9" d="M65.587 19.7323V7.36572H62.2761V22.375H63.8143H65.587H67.9302H68.292H69.2339L69.5795 19.7323H68.292H65.587Z" fill="#0A0F0D"/>
<path id="Vector_10" d="M28.5563 16.2669C29.0049 15.4443 29.2299 14.318 29.2299 12.8883C29.2299 11.7905 29.1187 10.8852 28.8992 10.1696C28.6783 9.45543 28.3476 8.89301 27.9058 8.48508C27.464 8.07715 26.9192 7.78984 26.2714 7.62314C25.6236 7.4578 24.8714 7.37378 24.0176 7.37378H20.1931V22.3831H23.4836V18.5545H23.8035C24.0461 18.5545 24.2819 18.545 24.5096 18.5274L25.9136 22.3831H29.2963L27.525 17.5151C27.937 17.1871 28.2812 16.771 28.5563 16.2655V16.2669ZM23.4823 16.1043V9.82541H23.8889C24.4296 9.82541 24.8538 9.8986 25.1601 10.045C25.4664 10.1913 25.6805 10.4854 25.8011 10.9259C25.9217 11.3663 25.9827 12.0209 25.9827 12.8883C25.9827 13.7556 25.919 14.4387 25.7903 14.8981C25.6615 15.3575 25.4406 15.6733 25.1276 15.8454C24.8145 16.0175 24.3727 16.1043 23.8035 16.1043H23.4836H23.4823Z" fill="#0A0F0D"/>
<path id="Vector_11" d="M55.0391 33.5965C55.4877 32.7738 55.7127 31.6476 55.7127 30.2179C55.7127 29.1201 55.6016 28.2148 55.382 27.4992C55.1611 26.785 54.8304 26.2226 54.3886 25.8147C53.9468 25.4067 53.402 25.1194 52.7542 24.9527C52.1064 24.7874 51.3542 24.7034 50.5004 24.7034H46.6759V39.7127H49.9665V35.8841H50.2863C50.5289 35.8841 50.7647 35.8746 50.9924 35.857L52.3964 39.7127H55.7791L54.0078 34.8447C54.4198 34.5167 54.764 34.1006 55.0391 33.5951V33.5965ZM49.9651 33.4338V27.155H50.3717C50.9124 27.155 51.3366 27.2282 51.6429 27.3746C51.9492 27.5209 52.1633 27.815 52.2839 28.2555C52.4045 28.6959 52.4655 29.3505 52.4655 30.2179C52.4655 31.0852 52.4018 31.7683 52.2731 32.2277C52.1443 32.6871 51.9234 33.0029 51.6104 33.175C51.2973 33.3471 50.8555 33.4338 50.2863 33.4338H49.9665H49.9651Z" fill="#0A0F0D"/>
<path id="Vector_12" d="M45.7991 19.9437H44.9724L43.7825 7.36572H40.4716L42.4367 22.375H48.3334L50.2985 7.36572H47.0093L45.7991 19.9437Z" fill="#0A0F0D"/>
<path id="Vector_13" d="M87.3156 16.8281L85.65 7.37524H84.7948H83.815H81.484V22.3846H84.7948V12.9317L86.4618 22.3846H88.2954H90.6278V7.37524H87.3156V16.8281Z" fill="#0A0F0D"/>
<path id="Vector_14" d="M36.456 7.36572H32.248L30.2829 22.375H33.5938L33.9149 19.178H36.4845L36.8192 22.375H40.1098L38.1447 7.36572H36.4574H36.456ZM34.1481 16.7657L34.7823 9.79703H35.609L36.2433 16.7657H34.1481Z" fill="#0A0F0D"/>
<path id="Vector_15" d="M76.3097 7.36572H72.1016L70.1365 22.375H73.4474L73.7686 19.178H76.3381L76.6729 22.375H79.9634L77.9983 7.36572H76.311H76.3097ZM74.0017 16.7657L74.6359 9.79703H75.4626L76.0969 16.7657H74.0017Z" fill="#0A0F0D"/>
<path id="Vector_16" d="M15.2939 7.36572H11.0859L9.12079 22.375H12.4316L12.7528 19.178H15.3224L15.6571 22.375H18.9477L16.9826 7.36572H15.2953H15.2939ZM12.9859 16.7657L13.6202 9.79703H14.4469L15.0811 16.7657H12.9859Z" fill="#0A0F0D"/>
<path id="Vector_17" d="M31.401 35.1564C31.401 36.0373 31.3183 36.6525 31.1557 37.0036C30.9917 37.3546 30.6326 37.5294 30.0769 37.5294C29.5213 37.5294 29.1621 37.3546 28.9981 37.0036C28.8341 36.6525 28.7528 36.0373 28.7528 35.1564V24.7034H25.4203V35.1564C25.4203 36.1647 25.5667 37.0293 25.858 37.7503C26.1494 38.4713 26.6373 39.0269 27.3217 39.4159C28.0047 39.8048 28.9236 40 30.0783 40C31.2329 40 32.1721 39.8048 32.8551 39.4159C33.5382 39.0269 34.0261 38.4713 34.3188 37.7503C34.6102 37.0293 34.7566 36.1647 34.7566 35.1564V24.7034H31.4023V35.1564H31.401Z" fill="#0A0F0D"/>
<path id="Vector_18" d="M68.1484 39.7127H69.6866H71.4606V24.7034H68.1484V39.7127Z" fill="#0A0F0D"/>
<path id="Vector_19" d="M78.6529 34.1562L76.9859 24.7034H76.1321H75.1523H72.8199V39.7127H76.1321V30.2599L77.7977 39.7127H79.6327H81.9637V24.7034H78.6529V34.1562Z" fill="#0A0F0D"/>
<path id="Vector_20" d="M63.2411 24.7034H59.033L57.0679 39.7127H60.3788L60.7 36.5157H63.2695L63.6043 39.7127H66.8948L64.9297 24.7034H63.2424H63.2411ZM60.9331 34.1033L61.5673 27.1347H62.394L63.0283 34.1033H60.9331Z" fill="#0A0F0D"/>
<path id="Vector_21" d="M90.6278 27.3447V24.7034H86.6353H83.3244V39.7127H86.6353H90.6278V37.0713H86.6353V33.4149H90.2538V31.0025H86.6353V27.3447H90.6278Z" fill="#0A0F0D"/>
<path id="Vector_22" d="M45.0645 24.7034H41.6819L39.7845 30.0403H39.5094V24.7034H36.1985V39.6422H37.7367H39.5094V34.3053H40.2887L42.2578 39.7127H45.6405L42.6495 31.4972L45.0645 24.7034Z" fill="#0A0F0D"/>
</g>
</g>
</g>
</svg>
